G75*
%MOIN*%
%OFA0B0*%
%FSLAX25Y25*%
%IPPOS*%
%LPD*%
%AMOC8*
5,1,8,0,0,1.08239X$1,22.5*
%
%ADD10C,0.02300*%
%ADD11C,0.10150*%
%ADD12C,0.04800*%
%ADD13OC8,0.06000*%
%ADD14C,0.06000*%
%ADD15C,0.06000*%
%ADD16OC8,0.07454*%
%ADD17C,0.06260*%
%ADD18C,0.07099*%
%ADD19R,0.13800X0.13800*%
%ADD20R,0.16800X0.16800*%
%ADD21C,0.04369*%
%ADD22C,0.07887*%
%ADD23C,0.03600*%
%ADD24C,0.18198*%
D10*
X0018333Y0101800D03*
X0023333Y0101800D03*
X0028333Y0101800D03*
X0033333Y0101800D03*
X0038333Y0101800D03*
X0043333Y0101800D03*
X0048333Y0101800D03*
X0053333Y0101800D03*
X0058333Y0101800D03*
X0063333Y0101800D03*
X0068333Y0101800D03*
X0073333Y0101800D03*
X0078333Y0101800D03*
X0083333Y0101800D03*
X0088333Y0101800D03*
X0093333Y0101800D03*
X0098333Y0101800D03*
X0103333Y0101800D03*
X0108333Y0101800D03*
X0113333Y0101800D03*
X0118333Y0101800D03*
X0123333Y0101800D03*
X0128333Y0101800D03*
X0133333Y0101800D03*
X0138333Y0101800D03*
X0143333Y0101800D03*
X0148333Y0101800D03*
X0153333Y0101800D03*
X0158333Y0101800D03*
X0163333Y0101800D03*
X0168333Y0101800D03*
X0173333Y0101800D03*
X0178333Y0101800D03*
X0183333Y0101800D03*
X0188333Y0101800D03*
X0193333Y0101800D03*
X0198333Y0101800D03*
X0203333Y0101800D03*
X0208333Y0101800D03*
X0213333Y0101800D03*
X0218333Y0101800D03*
X0223333Y0101800D03*
X0228333Y0101800D03*
X0233333Y0101800D03*
X0238333Y0101800D03*
X0243333Y0101800D03*
X0248333Y0101800D03*
X0253333Y0101800D03*
X0258333Y0101800D03*
X0263333Y0101800D03*
X0268333Y0101800D03*
X0273333Y0101800D03*
X0278333Y0101800D03*
X0283333Y0101800D03*
X0288333Y0101800D03*
X0293333Y0101800D03*
X0298333Y0101800D03*
X0303333Y0101800D03*
X0308333Y0101800D03*
X0313333Y0101800D03*
X0318333Y0101800D03*
X0318333Y0106800D03*
X0318333Y0111800D03*
X0318333Y0116800D03*
X0318333Y0121800D03*
X0318333Y0126800D03*
X0318333Y0131800D03*
X0318333Y0136800D03*
X0318333Y0141800D03*
X0318333Y0146800D03*
X0318333Y0151800D03*
X0318333Y0156800D03*
X0318333Y0161800D03*
X0318333Y0166800D03*
X0318333Y0171800D03*
X0318333Y0176800D03*
X0318333Y0181800D03*
X0318333Y0186800D03*
X0318333Y0191800D03*
X0318333Y0196800D03*
X0318333Y0201800D03*
X0318333Y0206800D03*
X0323333Y0201800D03*
X0328333Y0201800D03*
X0333333Y0201800D03*
X0338333Y0201800D03*
X0343333Y0201800D03*
X0348333Y0201800D03*
X0353333Y0201800D03*
X0358333Y0201800D03*
X0363333Y0201800D03*
X0368333Y0201800D03*
X0373333Y0201800D03*
X0378333Y0201800D03*
X0383333Y0201800D03*
X0388333Y0201800D03*
X0393333Y0196800D03*
X0393333Y0191800D03*
X0393333Y0186800D03*
X0393333Y0181800D03*
X0393333Y0176800D03*
X0388333Y0176800D03*
X0383333Y0176800D03*
X0378333Y0176800D03*
X0373333Y0176800D03*
X0368333Y0176800D03*
X0363333Y0176800D03*
X0358333Y0176800D03*
X0353333Y0176800D03*
X0348333Y0176800D03*
X0343333Y0176800D03*
X0338333Y0176800D03*
X0333333Y0176800D03*
X0328333Y0176800D03*
X0323333Y0176800D03*
X0318333Y0211800D03*
X0318333Y0216800D03*
X0318333Y0221800D03*
X0318333Y0226800D03*
X0318333Y0231800D03*
X0323333Y0226800D03*
X0328333Y0226800D03*
X0333333Y0226800D03*
X0338333Y0226800D03*
X0343333Y0226800D03*
X0348333Y0226800D03*
X0353333Y0226800D03*
X0358333Y0226800D03*
X0363333Y0226800D03*
X0368333Y0226800D03*
X0373333Y0226800D03*
X0378333Y0226800D03*
X0383333Y0226800D03*
X0388333Y0226800D03*
X0393333Y0221800D03*
X0393333Y0216800D03*
X0393333Y0211800D03*
X0393333Y0206800D03*
X0418333Y0206800D03*
X0418333Y0201800D03*
X0418333Y0196800D03*
X0418333Y0191800D03*
X0418333Y0186800D03*
X0418333Y0181800D03*
X0418333Y0176800D03*
X0413333Y0176800D03*
X0408333Y0176800D03*
X0403333Y0176800D03*
X0398333Y0176800D03*
X0418333Y0171800D03*
X0423333Y0176800D03*
X0428333Y0176800D03*
X0433333Y0176800D03*
X0438333Y0176800D03*
X0443333Y0176800D03*
X0448333Y0176800D03*
X0453333Y0176800D03*
X0458333Y0176800D03*
X0463333Y0176800D03*
X0468333Y0176800D03*
X0468333Y0181800D03*
X0468333Y0186800D03*
X0468333Y0191800D03*
X0468333Y0196800D03*
X0468333Y0201800D03*
X0468333Y0206800D03*
X0468333Y0211800D03*
X0468333Y0216800D03*
X0468333Y0221800D03*
X0468333Y0226800D03*
X0468333Y0231800D03*
X0468333Y0236800D03*
X0468333Y0241800D03*
X0468333Y0246800D03*
X0468333Y0251800D03*
X0463333Y0251800D03*
X0458333Y0251800D03*
X0453333Y0251800D03*
X0448333Y0251800D03*
X0443333Y0251800D03*
X0438333Y0251800D03*
X0433333Y0251800D03*
X0428333Y0251800D03*
X0423333Y0251800D03*
X0418333Y0251800D03*
X0413333Y0251800D03*
X0408333Y0251800D03*
X0403333Y0251800D03*
X0398333Y0251800D03*
X0393333Y0251800D03*
X0388333Y0251800D03*
X0383333Y0251800D03*
X0378333Y0251800D03*
X0373333Y0251800D03*
X0368333Y0251800D03*
X0363333Y0251800D03*
X0358333Y0251800D03*
X0353333Y0251800D03*
X0348333Y0251800D03*
X0343333Y0251800D03*
X0338333Y0251800D03*
X0333333Y0251800D03*
X0328333Y0251800D03*
X0323333Y0251800D03*
X0318333Y0251800D03*
X0318333Y0246800D03*
X0318333Y0241800D03*
X0318333Y0236800D03*
X0318333Y0256800D03*
X0318333Y0261800D03*
X0318333Y0266800D03*
X0318333Y0271800D03*
X0318333Y0276800D03*
X0318333Y0281800D03*
X0318333Y0286800D03*
X0318333Y0291800D03*
X0318333Y0296800D03*
X0318333Y0301800D03*
X0318333Y0306800D03*
X0318333Y0311800D03*
X0318333Y0316800D03*
X0318333Y0321800D03*
X0318333Y0326800D03*
X0318333Y0331800D03*
X0318333Y0336800D03*
X0318333Y0341800D03*
X0318333Y0346800D03*
X0318333Y0351800D03*
X0318333Y0356800D03*
X0318333Y0361800D03*
X0318333Y0366800D03*
X0318333Y0371800D03*
X0318333Y0376800D03*
X0318333Y0381800D03*
X0318333Y0386800D03*
X0318333Y0391800D03*
X0318333Y0396800D03*
X0318333Y0401800D03*
X0323333Y0326800D03*
X0328333Y0326800D03*
X0333333Y0326800D03*
X0338333Y0326800D03*
X0343333Y0326800D03*
X0348333Y0326800D03*
X0353333Y0326800D03*
X0358333Y0326800D03*
X0363333Y0326800D03*
X0368333Y0326800D03*
X0373333Y0326800D03*
X0378333Y0326800D03*
X0383333Y0326800D03*
X0388333Y0326800D03*
X0393333Y0326800D03*
X0393333Y0321800D03*
X0398333Y0326800D03*
X0403333Y0326800D03*
X0408333Y0326800D03*
X0413333Y0326800D03*
X0418333Y0326800D03*
X0418333Y0321800D03*
X0423333Y0326800D03*
X0428333Y0326800D03*
X0433333Y0326800D03*
X0438333Y0326800D03*
X0443333Y0326800D03*
X0448333Y0326800D03*
X0453333Y0326800D03*
X0458333Y0326800D03*
X0463333Y0326800D03*
X0468333Y0326800D03*
X0468333Y0321800D03*
X0473333Y0326800D03*
X0478333Y0326800D03*
X0483333Y0326800D03*
X0488333Y0326800D03*
X0493333Y0326800D03*
X0498333Y0326800D03*
X0503333Y0326800D03*
X0508333Y0326800D03*
X0513333Y0326800D03*
X0518333Y0326800D03*
X0518333Y0289300D03*
X0513333Y0289300D03*
X0508333Y0289300D03*
X0503333Y0289300D03*
X0498333Y0289300D03*
X0493333Y0289300D03*
X0488333Y0289300D03*
X0483333Y0289300D03*
X0478333Y0289300D03*
X0473333Y0289300D03*
X0468333Y0286800D03*
X0468333Y0281800D03*
X0468333Y0276800D03*
X0468333Y0271800D03*
X0468333Y0266800D03*
X0468333Y0261800D03*
X0468333Y0256800D03*
X0473333Y0251800D03*
X0478333Y0251800D03*
X0483333Y0251800D03*
X0488333Y0251800D03*
X0493333Y0251800D03*
X0498333Y0251800D03*
X0503333Y0251800D03*
X0508333Y0251800D03*
X0513333Y0251800D03*
X0518333Y0251800D03*
X0518333Y0214300D03*
X0513333Y0214300D03*
X0508333Y0214300D03*
X0503333Y0214300D03*
X0498333Y0214300D03*
X0493333Y0214300D03*
X0488333Y0214300D03*
X0483333Y0214300D03*
X0478333Y0214300D03*
X0473333Y0214300D03*
X0463333Y0214300D03*
X0458333Y0214300D03*
X0453333Y0214300D03*
X0448333Y0214300D03*
X0443333Y0214300D03*
X0438333Y0214300D03*
X0433333Y0214300D03*
X0428333Y0214300D03*
X0423333Y0214300D03*
X0418333Y0216800D03*
X0418333Y0211800D03*
X0418333Y0221800D03*
X0418333Y0226800D03*
X0418333Y0231800D03*
X0418333Y0236800D03*
X0418333Y0241800D03*
X0418333Y0246800D03*
X0418333Y0256800D03*
X0418333Y0261800D03*
X0418333Y0266800D03*
X0418333Y0271800D03*
X0418333Y0276800D03*
X0418333Y0281800D03*
X0418333Y0286800D03*
X0418333Y0291800D03*
X0418333Y0296800D03*
X0423333Y0289300D03*
X0428333Y0289300D03*
X0433333Y0289300D03*
X0438333Y0289300D03*
X0443333Y0289300D03*
X0448333Y0289300D03*
X0453333Y0289300D03*
X0458333Y0289300D03*
X0463333Y0289300D03*
X0468333Y0291800D03*
X0468333Y0296800D03*
X0468333Y0301800D03*
X0468333Y0306800D03*
X0468333Y0311800D03*
X0468333Y0316800D03*
X0418333Y0316800D03*
X0418333Y0311800D03*
X0418333Y0306800D03*
X0418333Y0301800D03*
X0393333Y0296800D03*
X0393333Y0291800D03*
X0393333Y0286800D03*
X0393333Y0281800D03*
X0388333Y0276800D03*
X0383333Y0276800D03*
X0378333Y0276800D03*
X0373333Y0276800D03*
X0368333Y0276800D03*
X0363333Y0276800D03*
X0358333Y0276800D03*
X0353333Y0276800D03*
X0348333Y0276800D03*
X0343333Y0276800D03*
X0338333Y0276800D03*
X0333333Y0276800D03*
X0328333Y0276800D03*
X0323333Y0276800D03*
X0323333Y0301800D03*
X0328333Y0301800D03*
X0333333Y0301800D03*
X0338333Y0301800D03*
X0343333Y0301800D03*
X0348333Y0301800D03*
X0353333Y0301800D03*
X0358333Y0301800D03*
X0363333Y0301800D03*
X0368333Y0301800D03*
X0373333Y0301800D03*
X0378333Y0301800D03*
X0383333Y0301800D03*
X0388333Y0301800D03*
X0393333Y0306800D03*
X0393333Y0311800D03*
X0393333Y0316800D03*
X0418333Y0331800D03*
X0418333Y0336800D03*
X0418333Y0341800D03*
X0418333Y0346800D03*
X0418333Y0351800D03*
X0418333Y0356800D03*
X0418333Y0361800D03*
X0418333Y0366800D03*
X0418333Y0371800D03*
X0418333Y0376800D03*
X0418333Y0381800D03*
X0418333Y0386800D03*
X0418333Y0391800D03*
X0418333Y0396800D03*
X0418333Y0401800D03*
X0393333Y0271800D03*
X0393333Y0266800D03*
X0393333Y0261800D03*
X0393333Y0256800D03*
X0393333Y0246800D03*
X0393333Y0241800D03*
X0393333Y0236800D03*
X0393333Y0231800D03*
X0473333Y0176800D03*
X0478333Y0176800D03*
X0483333Y0176800D03*
X0488333Y0176800D03*
X0493333Y0176800D03*
X0498333Y0176800D03*
X0503333Y0176800D03*
X0508333Y0176800D03*
X0513333Y0176800D03*
X0518333Y0176800D03*
X0518333Y0101800D03*
X0513333Y0101800D03*
X0508333Y0101800D03*
X0503333Y0101800D03*
X0498333Y0101800D03*
X0493333Y0101800D03*
X0488333Y0101800D03*
X0483333Y0101800D03*
X0478333Y0101800D03*
X0473333Y0101800D03*
X0468333Y0101800D03*
X0463333Y0101800D03*
X0458333Y0101800D03*
X0453333Y0101800D03*
X0448333Y0101800D03*
X0443333Y0101800D03*
X0438333Y0101800D03*
X0433333Y0101800D03*
X0428333Y0101800D03*
X0423333Y0101800D03*
X0418333Y0101800D03*
X0413333Y0101800D03*
X0408333Y0101800D03*
X0403333Y0101800D03*
X0398333Y0101800D03*
X0393333Y0101800D03*
X0388333Y0101800D03*
X0383333Y0101800D03*
X0378333Y0101800D03*
X0373333Y0101800D03*
X0368333Y0101800D03*
X0363333Y0101800D03*
X0358333Y0101800D03*
X0353333Y0101800D03*
X0348333Y0101800D03*
X0343333Y0101800D03*
X0338333Y0101800D03*
X0333333Y0101800D03*
X0328333Y0101800D03*
X0323333Y0101800D03*
X0418333Y0106800D03*
X0418333Y0111800D03*
X0418333Y0116800D03*
X0418333Y0121800D03*
X0418333Y0126800D03*
X0418333Y0131800D03*
X0418333Y0136800D03*
X0418333Y0141800D03*
X0418333Y0146800D03*
X0418333Y0151800D03*
X0418333Y0156800D03*
X0418333Y0161800D03*
X0418333Y0166800D03*
D11*
X0050833Y0146800D03*
X0038333Y0146800D03*
X0038333Y0126800D03*
X0050833Y0126800D03*
D12*
X0058333Y0132800D03*
X0058333Y0140800D03*
X0038333Y0136800D03*
D13*
X0033333Y0186800D03*
X0043333Y0186800D03*
X0053333Y0186800D03*
X0063333Y0186800D03*
X0073333Y0186800D03*
X0083333Y0186800D03*
X0093333Y0186800D03*
X0103333Y0186800D03*
X0103333Y0196800D03*
X0093333Y0196800D03*
X0083333Y0196800D03*
X0073333Y0196800D03*
X0063333Y0196800D03*
X0053333Y0196800D03*
X0043333Y0196800D03*
X0033333Y0196800D03*
X0133333Y0196800D03*
X0133333Y0206800D03*
X0143333Y0206800D03*
X0143333Y0196800D03*
X0143333Y0186800D03*
X0133333Y0186800D03*
X0133333Y0216800D03*
X0133333Y0226800D03*
X0143333Y0226800D03*
X0143333Y0216800D03*
X0143333Y0236800D03*
X0133333Y0236800D03*
X0133333Y0246800D03*
X0143333Y0246800D03*
X0143333Y0266800D03*
X0133333Y0266800D03*
X0133333Y0276800D03*
X0133333Y0286800D03*
X0133333Y0296800D03*
X0143333Y0296800D03*
X0143333Y0286800D03*
X0143333Y0276800D03*
X0143333Y0306800D03*
X0133333Y0306800D03*
X0133333Y0316800D03*
X0143333Y0316800D03*
X0143333Y0326800D03*
X0133333Y0326800D03*
X0103333Y0326800D03*
X0093333Y0326800D03*
X0083333Y0326800D03*
X0073333Y0326800D03*
X0063333Y0326800D03*
X0053333Y0326800D03*
X0043333Y0326800D03*
X0033333Y0326800D03*
X0033333Y0316800D03*
X0043333Y0316800D03*
X0053333Y0316800D03*
X0063333Y0316800D03*
X0073333Y0316800D03*
X0083333Y0316800D03*
X0093333Y0316800D03*
X0103333Y0316800D03*
D14*
X0103333Y0341800D03*
X0093333Y0341800D03*
X0083333Y0341800D03*
X0073333Y0341800D03*
X0063333Y0341800D03*
X0053333Y0341800D03*
X0043333Y0341800D03*
X0033333Y0341800D03*
X0158333Y0326800D03*
X0158333Y0316800D03*
X0158333Y0306800D03*
X0158333Y0296800D03*
X0158333Y0286800D03*
X0158333Y0276800D03*
X0158333Y0266800D03*
X0158333Y0246800D03*
X0158333Y0236800D03*
X0158333Y0226800D03*
X0158333Y0216800D03*
X0158333Y0206800D03*
X0158333Y0196800D03*
X0158333Y0186800D03*
X0103333Y0171800D03*
X0093333Y0171800D03*
X0083333Y0171800D03*
X0073333Y0171800D03*
X0063333Y0171800D03*
X0053333Y0171800D03*
X0043333Y0171800D03*
X0033333Y0171800D03*
D15*
X0048333Y0019400D02*
X0048333Y0014200D01*
X0058333Y0014200D02*
X0058333Y0019400D01*
X0163333Y0019400D02*
X0163333Y0014200D01*
X0173333Y0014200D02*
X0173333Y0019400D01*
X0183333Y0019400D02*
X0183333Y0014200D01*
X0203333Y0014200D02*
X0203333Y0019400D01*
X0213333Y0019400D02*
X0213333Y0014200D01*
X0223333Y0014200D02*
X0223333Y0019400D01*
X0308333Y0019400D02*
X0308333Y0014200D01*
X0318333Y0014200D02*
X0318333Y0019400D01*
X0348333Y0019400D02*
X0348333Y0014200D01*
X0358333Y0014200D02*
X0358333Y0019400D01*
X0368333Y0019400D02*
X0368333Y0014200D01*
X0378333Y0014200D02*
X0378333Y0019400D01*
X0478333Y0019400D02*
X0478333Y0014200D01*
X0488333Y0014200D02*
X0488333Y0019400D01*
X0434933Y0134300D02*
X0429733Y0134300D01*
X0429733Y0144300D02*
X0434933Y0144300D01*
X0406933Y0144300D02*
X0401733Y0144300D01*
X0401733Y0134300D02*
X0406933Y0134300D01*
X0455733Y0185300D02*
X0460933Y0185300D01*
X0460933Y0195300D02*
X0455733Y0195300D01*
X0455733Y0205300D02*
X0460933Y0205300D01*
X0460933Y0222800D02*
X0455733Y0222800D01*
X0455733Y0232800D02*
X0460933Y0232800D01*
X0460933Y0242800D02*
X0455733Y0242800D01*
X0455733Y0260300D02*
X0460933Y0260300D01*
X0460933Y0270300D02*
X0455733Y0270300D01*
X0455733Y0280300D02*
X0460933Y0280300D01*
X0460933Y0297800D02*
X0455733Y0297800D01*
X0455733Y0307800D02*
X0460933Y0307800D01*
X0460933Y0317800D02*
X0455733Y0317800D01*
X0505733Y0317800D02*
X0510933Y0317800D01*
X0510933Y0307800D02*
X0505733Y0307800D01*
X0505733Y0297800D02*
X0510933Y0297800D01*
X0510933Y0280300D02*
X0505733Y0280300D01*
X0505733Y0270300D02*
X0510933Y0270300D01*
X0510933Y0260300D02*
X0505733Y0260300D01*
X0505733Y0242800D02*
X0510933Y0242800D01*
X0510933Y0232800D02*
X0505733Y0232800D01*
X0505733Y0222800D02*
X0510933Y0222800D01*
X0510933Y0205300D02*
X0505733Y0205300D01*
X0505733Y0195300D02*
X0510933Y0195300D01*
X0510933Y0185300D02*
X0505733Y0185300D01*
X0405933Y0214300D02*
X0400733Y0214300D01*
X0400733Y0224300D02*
X0405933Y0224300D01*
X0405933Y0234300D02*
X0400733Y0234300D01*
X0400733Y0244300D02*
X0405933Y0244300D01*
X0405933Y0288800D02*
X0400733Y0288800D01*
X0400733Y0298800D02*
X0405933Y0298800D01*
X0405933Y0308800D02*
X0400733Y0308800D01*
X0400733Y0318800D02*
X0405933Y0318800D01*
X0406933Y0359300D02*
X0401733Y0359300D01*
X0401733Y0369300D02*
X0406933Y0369300D01*
X0429733Y0369300D02*
X0434933Y0369300D01*
X0434933Y0359300D02*
X0429733Y0359300D01*
X0355833Y0314400D02*
X0355833Y0309200D01*
X0345833Y0309200D02*
X0345833Y0314400D01*
X0335833Y0314400D02*
X0335833Y0309200D01*
X0325833Y0309200D02*
X0325833Y0314400D01*
X0325833Y0289400D02*
X0325833Y0284200D01*
X0335833Y0284200D02*
X0335833Y0289400D01*
X0345833Y0289400D02*
X0345833Y0284200D01*
X0355833Y0284200D02*
X0355833Y0289400D01*
X0355833Y0264400D02*
X0355833Y0259200D01*
X0345833Y0259200D02*
X0345833Y0264400D01*
X0335833Y0264400D02*
X0335833Y0259200D01*
X0325833Y0259200D02*
X0325833Y0264400D01*
X0325833Y0239400D02*
X0325833Y0234200D01*
X0335833Y0234200D02*
X0335833Y0239400D01*
X0345833Y0239400D02*
X0345833Y0234200D01*
X0355833Y0234200D02*
X0355833Y0239400D01*
X0355833Y0214400D02*
X0355833Y0209200D01*
X0345833Y0209200D02*
X0345833Y0214400D01*
X0335833Y0214400D02*
X0335833Y0209200D01*
X0325833Y0209200D02*
X0325833Y0214400D01*
X0325833Y0189400D02*
X0325833Y0184200D01*
X0335833Y0184200D02*
X0335833Y0189400D01*
X0345833Y0189400D02*
X0345833Y0184200D01*
X0355833Y0184200D02*
X0355833Y0189400D01*
X0225933Y0146800D02*
X0220733Y0146800D01*
X0220733Y0136800D02*
X0225933Y0136800D01*
X0225933Y0126800D02*
X0220733Y0126800D01*
X0190933Y0126800D02*
X0185733Y0126800D01*
X0185733Y0136800D02*
X0190933Y0136800D01*
X0190933Y0146800D02*
X0185733Y0146800D01*
X0155933Y0146800D02*
X0150733Y0146800D01*
X0150733Y0136800D02*
X0155933Y0136800D01*
X0155933Y0126800D02*
X0150733Y0126800D01*
X0195733Y0356800D02*
X0200933Y0356800D01*
X0200933Y0366800D02*
X0195733Y0366800D01*
X0195733Y0376800D02*
X0200933Y0376800D01*
X0200933Y0386800D02*
X0195733Y0386800D01*
X0165933Y0386800D02*
X0160733Y0386800D01*
X0160733Y0376800D02*
X0165933Y0376800D01*
X0165933Y0366800D02*
X0160733Y0366800D01*
X0130933Y0366800D02*
X0125733Y0366800D01*
X0125733Y0376800D02*
X0130933Y0376800D01*
X0130933Y0386800D02*
X0125733Y0386800D01*
X0090933Y0386800D02*
X0085733Y0386800D01*
X0085733Y0376800D02*
X0090933Y0376800D01*
X0090933Y0366800D02*
X0085733Y0366800D01*
X0065933Y0366800D02*
X0060733Y0366800D01*
X0060733Y0376800D02*
X0065933Y0376800D01*
X0065933Y0386800D02*
X0060733Y0386800D01*
X0040933Y0386800D02*
X0035733Y0386800D01*
X0035733Y0376800D02*
X0040933Y0376800D01*
X0040933Y0366800D02*
X0035733Y0366800D01*
X0230733Y0371800D02*
X0235933Y0371800D01*
X0235933Y0381800D02*
X0230733Y0381800D01*
D16*
X0353333Y0359300D03*
X0363333Y0369300D03*
X0383333Y0379300D03*
X0383333Y0349300D03*
X0453333Y0359300D03*
X0463333Y0369300D03*
X0483333Y0379300D03*
X0483333Y0349300D03*
X0483333Y0154300D03*
X0463333Y0144300D03*
X0453333Y0134300D03*
X0483333Y0124300D03*
X0498333Y0069300D03*
X0478333Y0059300D03*
X0468333Y0049300D03*
X0498333Y0039300D03*
X0383333Y0124300D03*
X0363333Y0144300D03*
X0353333Y0134300D03*
X0383333Y0154300D03*
X0068333Y0069300D03*
X0048333Y0059300D03*
X0038333Y0049300D03*
X0068333Y0039300D03*
D17*
X0283103Y0158450D02*
X0288563Y0158450D01*
X0288563Y0165150D02*
X0283103Y0165150D01*
X0283103Y0171850D02*
X0288563Y0171850D01*
X0288563Y0178550D02*
X0283103Y0178550D01*
X0283103Y0185250D02*
X0288563Y0185250D01*
X0288563Y0218450D02*
X0283103Y0218450D01*
X0283103Y0225150D02*
X0288563Y0225150D01*
X0288563Y0231850D02*
X0283103Y0231850D01*
X0283103Y0238550D02*
X0288563Y0238550D01*
X0288563Y0245250D02*
X0283103Y0245250D01*
D18*
X0292703Y0307115D03*
X0292703Y0367115D03*
D19*
X0280892Y0367115D03*
X0280892Y0307115D03*
D20*
X0284829Y0324831D03*
X0257270Y0307115D03*
X0284829Y0289398D03*
X0284829Y0349398D03*
X0257270Y0367115D03*
X0284829Y0384831D03*
D21*
X0155333Y0340800D03*
X0123333Y0340800D03*
X0106333Y0386800D03*
X0027333Y0305800D03*
X0117333Y0256800D03*
X0029892Y0209859D03*
X0068333Y0154800D03*
X0076333Y0125800D03*
X0105333Y0125800D03*
X0129333Y0125800D03*
X0148333Y0066800D03*
X0149333Y0046800D03*
X0153333Y0024300D03*
X0115833Y0021800D03*
X0105833Y0014300D03*
X0105833Y0029300D03*
X0108333Y0051800D03*
X0098333Y0059300D03*
X0198333Y0054300D03*
X0218333Y0054300D03*
X0238333Y0054300D03*
X0258333Y0054300D03*
X0285833Y0054300D03*
X0300833Y0043300D03*
X0305833Y0054300D03*
X0323333Y0054300D03*
X0323333Y0046800D03*
X0363333Y0054300D03*
X0388333Y0046800D03*
X0383333Y0029300D03*
X0373333Y0029300D03*
X0418333Y0007800D03*
X0428333Y0039359D03*
X0438333Y0059300D03*
X0453333Y0036800D03*
X0455833Y0019300D03*
X0388333Y0066800D03*
X0248833Y0019300D03*
X0247333Y0014800D03*
X0207333Y0122800D03*
X0247333Y0265800D03*
X0304333Y0265800D03*
X0432333Y0267300D03*
X0438333Y0272800D03*
X0432333Y0304800D03*
X0437333Y0309800D03*
X0482333Y0303800D03*
X0488333Y0309800D03*
X0488333Y0271800D03*
X0482333Y0267300D03*
X0488833Y0234800D03*
X0482333Y0229800D03*
X0488333Y0196800D03*
X0482133Y0192400D03*
X0438833Y0197300D03*
X0432333Y0192300D03*
X0432833Y0229800D03*
X0438333Y0234800D03*
D22*
X0238333Y0201800D03*
X0195333Y0218300D03*
X0235379Y0165150D03*
X0206833Y0286800D03*
X0228333Y0326800D03*
X0028833Y0160300D03*
D23*
X0128333Y0166800D03*
X0128333Y0171800D03*
X0128333Y0176800D03*
X0301633Y0038500D03*
X0302633Y0033200D03*
X0293133Y0030600D03*
X0296933Y0025500D03*
X0286533Y0028100D03*
X0310533Y0035800D03*
X0362333Y0191300D03*
X0362333Y0216300D03*
X0362333Y0241300D03*
X0361833Y0266300D03*
X0362333Y0290800D03*
X0361833Y0316300D03*
X0407333Y0282300D03*
X0407333Y0207300D03*
D24*
X0403333Y0161800D03*
X0433333Y0161800D03*
X0433333Y0116800D03*
X0403333Y0116800D03*
X0365396Y0078800D03*
X0351333Y0040800D03*
X0333333Y0116800D03*
X0333333Y0161800D03*
X0185333Y0040800D03*
X0171333Y0078800D03*
X0503333Y0116800D03*
X0503333Y0161800D03*
X0503333Y0341800D03*
X0503333Y0386800D03*
X0433333Y0386800D03*
X0403333Y0386800D03*
X0403333Y0341800D03*
X0433333Y0341800D03*
X0333333Y0341800D03*
X0333333Y0386800D03*
M02*
