G75*
%MOIN*%
%OFA0B0*%
%FSLAX25Y25*%
%IPPOS*%
%LPD*%
%AMOC8*
5,1,8,0,0,1.08239X$1,22.5*
%
%ADD10C,0.02300*%
%ADD11R,0.06706X0.03556*%
%ADD12R,0.03769X0.06706*%
%ADD13R,0.03556X0.06706*%
%ADD14C,0.03900*%
%ADD15C,0.10150*%
%ADD16C,0.04800*%
%ADD17OC8,0.06000*%
%ADD18C,0.06000*%
%ADD19R,0.03950X0.01981*%
%ADD20R,0.01981X0.03950*%
%ADD21R,0.02910X0.02950*%
%ADD22R,0.02000X0.04700*%
%ADD23R,0.06706X0.05918*%
%ADD24R,0.04737X0.05131*%
%ADD25C,0.06000*%
%ADD26R,0.04700X0.02000*%
%ADD27R,0.05918X0.06706*%
%ADD28R,0.04343X0.03162*%
%ADD29R,0.04343X0.03556*%
%ADD30R,0.03162X0.04343*%
%ADD31R,0.03950X0.03950*%
%ADD32R,0.05131X0.04737*%
%ADD33OC8,0.07454*%
%ADD34C,0.06260*%
%ADD35R,0.03556X0.04343*%
%ADD36C,0.07099*%
%ADD37R,0.13800X0.13800*%
%ADD38R,0.16800X0.16800*%
%ADD39C,0.04369*%
%ADD40C,0.07887*%
%ADD41C,0.03600*%
%ADD42C,0.18198*%
D10*
X0018333Y0101800D03*
X0023333Y0101800D03*
X0028333Y0101800D03*
X0033333Y0101800D03*
X0038333Y0101800D03*
X0043333Y0101800D03*
X0048333Y0101800D03*
X0053333Y0101800D03*
X0058333Y0101800D03*
X0063333Y0101800D03*
X0068333Y0101800D03*
X0073333Y0101800D03*
X0078333Y0101800D03*
X0083333Y0101800D03*
X0088333Y0101800D03*
X0093333Y0101800D03*
X0098333Y0101800D03*
X0103333Y0101800D03*
X0108333Y0101800D03*
X0113333Y0101800D03*
X0118333Y0101800D03*
X0123333Y0101800D03*
X0128333Y0101800D03*
X0133333Y0101800D03*
X0138333Y0101800D03*
X0143333Y0101800D03*
X0148333Y0101800D03*
X0153333Y0101800D03*
X0158333Y0101800D03*
X0163333Y0101800D03*
X0168333Y0101800D03*
X0173333Y0101800D03*
X0178333Y0101800D03*
X0183333Y0101800D03*
X0188333Y0101800D03*
X0193333Y0101800D03*
X0198333Y0101800D03*
X0203333Y0101800D03*
X0208333Y0101800D03*
X0213333Y0101800D03*
X0218333Y0101800D03*
X0223333Y0101800D03*
X0228333Y0101800D03*
X0233333Y0101800D03*
X0238333Y0101800D03*
X0243333Y0101800D03*
X0248333Y0101800D03*
X0253333Y0101800D03*
X0258333Y0101800D03*
X0263333Y0101800D03*
X0268333Y0101800D03*
X0273333Y0101800D03*
X0278333Y0101800D03*
X0283333Y0101800D03*
X0288333Y0101800D03*
X0293333Y0101800D03*
X0298333Y0101800D03*
X0303333Y0101800D03*
X0308333Y0101800D03*
X0313333Y0101800D03*
X0318333Y0101800D03*
X0318333Y0106800D03*
X0318333Y0111800D03*
X0318333Y0116800D03*
X0318333Y0121800D03*
X0318333Y0126800D03*
X0318333Y0131800D03*
X0318333Y0136800D03*
X0318333Y0141800D03*
X0318333Y0146800D03*
X0318333Y0151800D03*
X0318333Y0156800D03*
X0318333Y0161800D03*
X0318333Y0166800D03*
X0318333Y0171800D03*
X0318333Y0176800D03*
X0318333Y0181800D03*
X0318333Y0186800D03*
X0318333Y0191800D03*
X0318333Y0196800D03*
X0318333Y0201800D03*
X0318333Y0206800D03*
X0323333Y0201800D03*
X0328333Y0201800D03*
X0333333Y0201800D03*
X0338333Y0201800D03*
X0343333Y0201800D03*
X0348333Y0201800D03*
X0353333Y0201800D03*
X0358333Y0201800D03*
X0363333Y0201800D03*
X0368333Y0201800D03*
X0373333Y0201800D03*
X0378333Y0201800D03*
X0383333Y0201800D03*
X0388333Y0201800D03*
X0393333Y0196800D03*
X0393333Y0191800D03*
X0393333Y0186800D03*
X0393333Y0181800D03*
X0393333Y0176800D03*
X0388333Y0176800D03*
X0383333Y0176800D03*
X0378333Y0176800D03*
X0373333Y0176800D03*
X0368333Y0176800D03*
X0363333Y0176800D03*
X0358333Y0176800D03*
X0353333Y0176800D03*
X0348333Y0176800D03*
X0343333Y0176800D03*
X0338333Y0176800D03*
X0333333Y0176800D03*
X0328333Y0176800D03*
X0323333Y0176800D03*
X0318333Y0211800D03*
X0318333Y0216800D03*
X0318333Y0221800D03*
X0318333Y0226800D03*
X0318333Y0231800D03*
X0323333Y0226800D03*
X0328333Y0226800D03*
X0333333Y0226800D03*
X0338333Y0226800D03*
X0343333Y0226800D03*
X0348333Y0226800D03*
X0353333Y0226800D03*
X0358333Y0226800D03*
X0363333Y0226800D03*
X0368333Y0226800D03*
X0373333Y0226800D03*
X0378333Y0226800D03*
X0383333Y0226800D03*
X0388333Y0226800D03*
X0393333Y0221800D03*
X0393333Y0216800D03*
X0393333Y0211800D03*
X0393333Y0206800D03*
X0418333Y0206800D03*
X0418333Y0201800D03*
X0418333Y0196800D03*
X0418333Y0191800D03*
X0418333Y0186800D03*
X0418333Y0181800D03*
X0418333Y0176800D03*
X0413333Y0176800D03*
X0408333Y0176800D03*
X0403333Y0176800D03*
X0398333Y0176800D03*
X0418333Y0171800D03*
X0423333Y0176800D03*
X0428333Y0176800D03*
X0433333Y0176800D03*
X0438333Y0176800D03*
X0443333Y0176800D03*
X0448333Y0176800D03*
X0453333Y0176800D03*
X0458333Y0176800D03*
X0463333Y0176800D03*
X0468333Y0176800D03*
X0468333Y0181800D03*
X0468333Y0186800D03*
X0468333Y0191800D03*
X0468333Y0196800D03*
X0468333Y0201800D03*
X0468333Y0206800D03*
X0468333Y0211800D03*
X0468333Y0216800D03*
X0468333Y0221800D03*
X0468333Y0226800D03*
X0468333Y0231800D03*
X0468333Y0236800D03*
X0468333Y0241800D03*
X0468333Y0246800D03*
X0468333Y0251800D03*
X0463333Y0251800D03*
X0458333Y0251800D03*
X0453333Y0251800D03*
X0448333Y0251800D03*
X0443333Y0251800D03*
X0438333Y0251800D03*
X0433333Y0251800D03*
X0428333Y0251800D03*
X0423333Y0251800D03*
X0418333Y0251800D03*
X0413333Y0251800D03*
X0408333Y0251800D03*
X0403333Y0251800D03*
X0398333Y0251800D03*
X0393333Y0251800D03*
X0388333Y0251800D03*
X0383333Y0251800D03*
X0378333Y0251800D03*
X0373333Y0251800D03*
X0368333Y0251800D03*
X0363333Y0251800D03*
X0358333Y0251800D03*
X0353333Y0251800D03*
X0348333Y0251800D03*
X0343333Y0251800D03*
X0338333Y0251800D03*
X0333333Y0251800D03*
X0328333Y0251800D03*
X0323333Y0251800D03*
X0318333Y0251800D03*
X0318333Y0246800D03*
X0318333Y0241800D03*
X0318333Y0236800D03*
X0318333Y0256800D03*
X0318333Y0261800D03*
X0318333Y0266800D03*
X0318333Y0271800D03*
X0318333Y0276800D03*
X0318333Y0281800D03*
X0318333Y0286800D03*
X0318333Y0291800D03*
X0318333Y0296800D03*
X0318333Y0301800D03*
X0318333Y0306800D03*
X0318333Y0311800D03*
X0318333Y0316800D03*
X0318333Y0321800D03*
X0318333Y0326800D03*
X0318333Y0331800D03*
X0318333Y0336800D03*
X0318333Y0341800D03*
X0318333Y0346800D03*
X0318333Y0351800D03*
X0318333Y0356800D03*
X0318333Y0361800D03*
X0318333Y0366800D03*
X0318333Y0371800D03*
X0318333Y0376800D03*
X0318333Y0381800D03*
X0318333Y0386800D03*
X0318333Y0391800D03*
X0318333Y0396800D03*
X0318333Y0401800D03*
X0323333Y0326800D03*
X0328333Y0326800D03*
X0333333Y0326800D03*
X0338333Y0326800D03*
X0343333Y0326800D03*
X0348333Y0326800D03*
X0353333Y0326800D03*
X0358333Y0326800D03*
X0363333Y0326800D03*
X0368333Y0326800D03*
X0373333Y0326800D03*
X0378333Y0326800D03*
X0383333Y0326800D03*
X0388333Y0326800D03*
X0393333Y0326800D03*
X0393333Y0321800D03*
X0398333Y0326800D03*
X0403333Y0326800D03*
X0408333Y0326800D03*
X0413333Y0326800D03*
X0418333Y0326800D03*
X0418333Y0321800D03*
X0423333Y0326800D03*
X0428333Y0326800D03*
X0433333Y0326800D03*
X0438333Y0326800D03*
X0443333Y0326800D03*
X0448333Y0326800D03*
X0453333Y0326800D03*
X0458333Y0326800D03*
X0463333Y0326800D03*
X0468333Y0326800D03*
X0468333Y0321800D03*
X0473333Y0326800D03*
X0478333Y0326800D03*
X0483333Y0326800D03*
X0488333Y0326800D03*
X0493333Y0326800D03*
X0498333Y0326800D03*
X0503333Y0326800D03*
X0508333Y0326800D03*
X0513333Y0326800D03*
X0518333Y0326800D03*
X0518333Y0289300D03*
X0513333Y0289300D03*
X0508333Y0289300D03*
X0503333Y0289300D03*
X0498333Y0289300D03*
X0493333Y0289300D03*
X0488333Y0289300D03*
X0483333Y0289300D03*
X0478333Y0289300D03*
X0473333Y0289300D03*
X0468333Y0286800D03*
X0468333Y0281800D03*
X0468333Y0276800D03*
X0468333Y0271800D03*
X0468333Y0266800D03*
X0468333Y0261800D03*
X0468333Y0256800D03*
X0473333Y0251800D03*
X0478333Y0251800D03*
X0483333Y0251800D03*
X0488333Y0251800D03*
X0493333Y0251800D03*
X0498333Y0251800D03*
X0503333Y0251800D03*
X0508333Y0251800D03*
X0513333Y0251800D03*
X0518333Y0251800D03*
X0518333Y0214300D03*
X0513333Y0214300D03*
X0508333Y0214300D03*
X0503333Y0214300D03*
X0498333Y0214300D03*
X0493333Y0214300D03*
X0488333Y0214300D03*
X0483333Y0214300D03*
X0478333Y0214300D03*
X0473333Y0214300D03*
X0463333Y0214300D03*
X0458333Y0214300D03*
X0453333Y0214300D03*
X0448333Y0214300D03*
X0443333Y0214300D03*
X0438333Y0214300D03*
X0433333Y0214300D03*
X0428333Y0214300D03*
X0423333Y0214300D03*
X0418333Y0216800D03*
X0418333Y0211800D03*
X0418333Y0221800D03*
X0418333Y0226800D03*
X0418333Y0231800D03*
X0418333Y0236800D03*
X0418333Y0241800D03*
X0418333Y0246800D03*
X0418333Y0256800D03*
X0418333Y0261800D03*
X0418333Y0266800D03*
X0418333Y0271800D03*
X0418333Y0276800D03*
X0418333Y0281800D03*
X0418333Y0286800D03*
X0418333Y0291800D03*
X0418333Y0296800D03*
X0423333Y0289300D03*
X0428333Y0289300D03*
X0433333Y0289300D03*
X0438333Y0289300D03*
X0443333Y0289300D03*
X0448333Y0289300D03*
X0453333Y0289300D03*
X0458333Y0289300D03*
X0463333Y0289300D03*
X0468333Y0291800D03*
X0468333Y0296800D03*
X0468333Y0301800D03*
X0468333Y0306800D03*
X0468333Y0311800D03*
X0468333Y0316800D03*
X0418333Y0316800D03*
X0418333Y0311800D03*
X0418333Y0306800D03*
X0418333Y0301800D03*
X0393333Y0296800D03*
X0393333Y0291800D03*
X0393333Y0286800D03*
X0393333Y0281800D03*
X0388333Y0276800D03*
X0383333Y0276800D03*
X0378333Y0276800D03*
X0373333Y0276800D03*
X0368333Y0276800D03*
X0363333Y0276800D03*
X0358333Y0276800D03*
X0353333Y0276800D03*
X0348333Y0276800D03*
X0343333Y0276800D03*
X0338333Y0276800D03*
X0333333Y0276800D03*
X0328333Y0276800D03*
X0323333Y0276800D03*
X0323333Y0301800D03*
X0328333Y0301800D03*
X0333333Y0301800D03*
X0338333Y0301800D03*
X0343333Y0301800D03*
X0348333Y0301800D03*
X0353333Y0301800D03*
X0358333Y0301800D03*
X0363333Y0301800D03*
X0368333Y0301800D03*
X0373333Y0301800D03*
X0378333Y0301800D03*
X0383333Y0301800D03*
X0388333Y0301800D03*
X0393333Y0306800D03*
X0393333Y0311800D03*
X0393333Y0316800D03*
X0418333Y0331800D03*
X0418333Y0336800D03*
X0418333Y0341800D03*
X0418333Y0346800D03*
X0418333Y0351800D03*
X0418333Y0356800D03*
X0418333Y0361800D03*
X0418333Y0366800D03*
X0418333Y0371800D03*
X0418333Y0376800D03*
X0418333Y0381800D03*
X0418333Y0386800D03*
X0418333Y0391800D03*
X0418333Y0396800D03*
X0418333Y0401800D03*
X0393333Y0271800D03*
X0393333Y0266800D03*
X0393333Y0261800D03*
X0393333Y0256800D03*
X0393333Y0246800D03*
X0393333Y0241800D03*
X0393333Y0236800D03*
X0393333Y0231800D03*
X0473333Y0176800D03*
X0478333Y0176800D03*
X0483333Y0176800D03*
X0488333Y0176800D03*
X0493333Y0176800D03*
X0498333Y0176800D03*
X0503333Y0176800D03*
X0508333Y0176800D03*
X0513333Y0176800D03*
X0518333Y0176800D03*
X0518333Y0101800D03*
X0513333Y0101800D03*
X0508333Y0101800D03*
X0503333Y0101800D03*
X0498333Y0101800D03*
X0493333Y0101800D03*
X0488333Y0101800D03*
X0483333Y0101800D03*
X0478333Y0101800D03*
X0473333Y0101800D03*
X0468333Y0101800D03*
X0463333Y0101800D03*
X0458333Y0101800D03*
X0453333Y0101800D03*
X0448333Y0101800D03*
X0443333Y0101800D03*
X0438333Y0101800D03*
X0433333Y0101800D03*
X0428333Y0101800D03*
X0423333Y0101800D03*
X0418333Y0101800D03*
X0413333Y0101800D03*
X0408333Y0101800D03*
X0403333Y0101800D03*
X0398333Y0101800D03*
X0393333Y0101800D03*
X0388333Y0101800D03*
X0383333Y0101800D03*
X0378333Y0101800D03*
X0373333Y0101800D03*
X0368333Y0101800D03*
X0363333Y0101800D03*
X0358333Y0101800D03*
X0353333Y0101800D03*
X0348333Y0101800D03*
X0343333Y0101800D03*
X0338333Y0101800D03*
X0333333Y0101800D03*
X0328333Y0101800D03*
X0323333Y0101800D03*
X0418333Y0106800D03*
X0418333Y0111800D03*
X0418333Y0116800D03*
X0418333Y0121800D03*
X0418333Y0126800D03*
X0418333Y0131800D03*
X0418333Y0136800D03*
X0418333Y0141800D03*
X0418333Y0146800D03*
X0418333Y0151800D03*
X0418333Y0156800D03*
X0418333Y0161800D03*
X0418333Y0166800D03*
D11*
X0093727Y0227272D03*
X0093727Y0231209D03*
X0093727Y0235146D03*
X0093727Y0239083D03*
X0093727Y0243020D03*
X0093727Y0246957D03*
X0093727Y0250894D03*
X0093727Y0262706D03*
X0093727Y0266643D03*
X0093727Y0270580D03*
X0093727Y0274517D03*
X0093727Y0278454D03*
X0093727Y0282391D03*
X0093727Y0286328D03*
D12*
X0087511Y0221056D03*
D13*
X0083574Y0221056D03*
X0079637Y0221056D03*
X0075700Y0221056D03*
X0071763Y0221056D03*
X0067826Y0221056D03*
X0063889Y0221056D03*
X0059952Y0221056D03*
X0056015Y0221056D03*
X0056015Y0292544D03*
X0059952Y0292544D03*
X0063889Y0292544D03*
X0067826Y0292544D03*
X0071763Y0292544D03*
X0075700Y0292544D03*
X0079637Y0292544D03*
X0083574Y0292544D03*
X0087511Y0292544D03*
D14*
X0053333Y0139300D03*
X0048333Y0139300D03*
X0043333Y0139300D03*
X0043333Y0134300D03*
X0048333Y0134300D03*
X0053333Y0134300D03*
D15*
X0050833Y0126800D03*
X0038333Y0126800D03*
X0038333Y0146800D03*
X0050833Y0146800D03*
D16*
X0058333Y0140800D03*
X0058333Y0132800D03*
X0038333Y0136800D03*
D17*
X0033333Y0186800D03*
X0043333Y0186800D03*
X0053333Y0186800D03*
X0063333Y0186800D03*
X0073333Y0186800D03*
X0083333Y0186800D03*
X0093333Y0186800D03*
X0103333Y0186800D03*
X0103333Y0196800D03*
X0093333Y0196800D03*
X0083333Y0196800D03*
X0073333Y0196800D03*
X0063333Y0196800D03*
X0053333Y0196800D03*
X0043333Y0196800D03*
X0033333Y0196800D03*
X0133333Y0196800D03*
X0133333Y0206800D03*
X0143333Y0206800D03*
X0143333Y0196800D03*
X0143333Y0186800D03*
X0133333Y0186800D03*
X0133333Y0216800D03*
X0133333Y0226800D03*
X0143333Y0226800D03*
X0143333Y0216800D03*
X0143333Y0236800D03*
X0133333Y0236800D03*
X0133333Y0246800D03*
X0143333Y0246800D03*
X0143333Y0266800D03*
X0133333Y0266800D03*
X0133333Y0276800D03*
X0133333Y0286800D03*
X0133333Y0296800D03*
X0143333Y0296800D03*
X0143333Y0286800D03*
X0143333Y0276800D03*
X0143333Y0306800D03*
X0133333Y0306800D03*
X0133333Y0316800D03*
X0143333Y0316800D03*
X0143333Y0326800D03*
X0133333Y0326800D03*
X0103333Y0326800D03*
X0093333Y0326800D03*
X0083333Y0326800D03*
X0073333Y0326800D03*
X0063333Y0326800D03*
X0053333Y0326800D03*
X0043333Y0326800D03*
X0033333Y0326800D03*
X0033333Y0316800D03*
X0043333Y0316800D03*
X0053333Y0316800D03*
X0063333Y0316800D03*
X0073333Y0316800D03*
X0083333Y0316800D03*
X0093333Y0316800D03*
X0103333Y0316800D03*
D18*
X0103333Y0341800D03*
X0093333Y0341800D03*
X0083333Y0341800D03*
X0073333Y0341800D03*
X0063333Y0341800D03*
X0053333Y0341800D03*
X0043333Y0341800D03*
X0033333Y0341800D03*
X0158333Y0326800D03*
X0158333Y0316800D03*
X0158333Y0306800D03*
X0158333Y0296800D03*
X0158333Y0286800D03*
X0158333Y0276800D03*
X0158333Y0266800D03*
X0158333Y0246800D03*
X0158333Y0236800D03*
X0158333Y0226800D03*
X0158333Y0216800D03*
X0158333Y0206800D03*
X0158333Y0196800D03*
X0158333Y0186800D03*
X0103333Y0171800D03*
X0093333Y0171800D03*
X0083333Y0171800D03*
X0073333Y0171800D03*
X0063333Y0171800D03*
X0053333Y0171800D03*
X0043333Y0171800D03*
X0033333Y0171800D03*
D19*
X0088018Y0145737D03*
X0088018Y0143769D03*
X0088018Y0141800D03*
X0088018Y0139831D03*
X0088018Y0137863D03*
X0098648Y0137863D03*
X0098648Y0139831D03*
X0098648Y0141800D03*
X0098648Y0143769D03*
X0098648Y0145737D03*
D20*
X0095302Y0146820D03*
X0093333Y0146820D03*
X0091365Y0146820D03*
X0091365Y0136780D03*
X0093333Y0136780D03*
X0095302Y0136780D03*
D21*
X0095038Y0126800D03*
X0091628Y0126800D03*
X0091628Y0116800D03*
X0095038Y0116800D03*
D22*
X0201699Y0250313D03*
X0204258Y0250313D03*
X0206817Y0250313D03*
X0209376Y0250313D03*
X0211936Y0250313D03*
X0214495Y0250313D03*
X0217054Y0250313D03*
X0219613Y0250313D03*
X0222172Y0250313D03*
X0224731Y0250313D03*
X0227290Y0250313D03*
X0229849Y0250313D03*
X0232408Y0250313D03*
X0234967Y0250313D03*
X0234967Y0273287D03*
X0232408Y0273287D03*
X0229849Y0273287D03*
X0227290Y0273287D03*
X0224731Y0273287D03*
X0222172Y0273287D03*
X0219613Y0273287D03*
X0217054Y0273287D03*
X0214495Y0273287D03*
X0211936Y0273287D03*
X0209376Y0273287D03*
X0206817Y0273287D03*
X0204258Y0273287D03*
X0201699Y0273287D03*
D23*
X0205333Y0226040D03*
X0205333Y0218560D03*
X0238333Y0020540D03*
X0238333Y0013060D03*
D24*
X0365487Y0186300D03*
X0372180Y0186300D03*
X0372180Y0211300D03*
X0365487Y0211300D03*
X0365487Y0236300D03*
X0372180Y0236300D03*
X0371980Y0261300D03*
X0365287Y0261300D03*
X0364987Y0285800D03*
X0371680Y0285800D03*
X0371680Y0311300D03*
X0364987Y0311300D03*
X0425487Y0299800D03*
X0432180Y0299800D03*
X0439487Y0301800D03*
X0446180Y0301800D03*
X0475487Y0299300D03*
X0482180Y0299300D03*
X0489987Y0302800D03*
X0496680Y0302800D03*
X0496680Y0264800D03*
X0489987Y0264800D03*
X0482180Y0262800D03*
X0475487Y0262800D03*
X0446680Y0264800D03*
X0439987Y0264800D03*
X0432180Y0262800D03*
X0425487Y0262800D03*
X0425487Y0225300D03*
X0432180Y0225300D03*
X0439987Y0227300D03*
X0446680Y0227300D03*
X0475487Y0225300D03*
X0482180Y0225300D03*
X0489987Y0227300D03*
X0496680Y0227300D03*
X0496680Y0189800D03*
X0489987Y0189800D03*
X0482180Y0187800D03*
X0475487Y0187800D03*
X0446680Y0189800D03*
X0439987Y0189800D03*
X0432180Y0187800D03*
X0425487Y0187800D03*
X0228180Y0291800D03*
X0221487Y0291800D03*
D25*
X0048333Y0019400D02*
X0048333Y0014200D01*
X0058333Y0014200D02*
X0058333Y0019400D01*
X0163333Y0019400D02*
X0163333Y0014200D01*
X0173333Y0014200D02*
X0173333Y0019400D01*
X0183333Y0019400D02*
X0183333Y0014200D01*
X0203333Y0014200D02*
X0203333Y0019400D01*
X0213333Y0019400D02*
X0213333Y0014200D01*
X0223333Y0014200D02*
X0223333Y0019400D01*
X0308333Y0019400D02*
X0308333Y0014200D01*
X0318333Y0014200D02*
X0318333Y0019400D01*
X0348333Y0019400D02*
X0348333Y0014200D01*
X0358333Y0014200D02*
X0358333Y0019400D01*
X0368333Y0019400D02*
X0368333Y0014200D01*
X0378333Y0014200D02*
X0378333Y0019400D01*
X0478333Y0019400D02*
X0478333Y0014200D01*
X0488333Y0014200D02*
X0488333Y0019400D01*
X0434933Y0134300D02*
X0429733Y0134300D01*
X0429733Y0144300D02*
X0434933Y0144300D01*
X0406933Y0144300D02*
X0401733Y0144300D01*
X0401733Y0134300D02*
X0406933Y0134300D01*
X0455733Y0185300D02*
X0460933Y0185300D01*
X0460933Y0195300D02*
X0455733Y0195300D01*
X0455733Y0205300D02*
X0460933Y0205300D01*
X0460933Y0222800D02*
X0455733Y0222800D01*
X0455733Y0232800D02*
X0460933Y0232800D01*
X0460933Y0242800D02*
X0455733Y0242800D01*
X0455733Y0260300D02*
X0460933Y0260300D01*
X0460933Y0270300D02*
X0455733Y0270300D01*
X0455733Y0280300D02*
X0460933Y0280300D01*
X0460933Y0297800D02*
X0455733Y0297800D01*
X0455733Y0307800D02*
X0460933Y0307800D01*
X0460933Y0317800D02*
X0455733Y0317800D01*
X0505733Y0317800D02*
X0510933Y0317800D01*
X0510933Y0307800D02*
X0505733Y0307800D01*
X0505733Y0297800D02*
X0510933Y0297800D01*
X0510933Y0280300D02*
X0505733Y0280300D01*
X0505733Y0270300D02*
X0510933Y0270300D01*
X0510933Y0260300D02*
X0505733Y0260300D01*
X0505733Y0242800D02*
X0510933Y0242800D01*
X0510933Y0232800D02*
X0505733Y0232800D01*
X0505733Y0222800D02*
X0510933Y0222800D01*
X0510933Y0205300D02*
X0505733Y0205300D01*
X0505733Y0195300D02*
X0510933Y0195300D01*
X0510933Y0185300D02*
X0505733Y0185300D01*
X0405933Y0214300D02*
X0400733Y0214300D01*
X0400733Y0224300D02*
X0405933Y0224300D01*
X0405933Y0234300D02*
X0400733Y0234300D01*
X0400733Y0244300D02*
X0405933Y0244300D01*
X0405933Y0288800D02*
X0400733Y0288800D01*
X0400733Y0298800D02*
X0405933Y0298800D01*
X0405933Y0308800D02*
X0400733Y0308800D01*
X0400733Y0318800D02*
X0405933Y0318800D01*
X0406933Y0359300D02*
X0401733Y0359300D01*
X0401733Y0369300D02*
X0406933Y0369300D01*
X0429733Y0369300D02*
X0434933Y0369300D01*
X0434933Y0359300D02*
X0429733Y0359300D01*
X0355833Y0314400D02*
X0355833Y0309200D01*
X0345833Y0309200D02*
X0345833Y0314400D01*
X0335833Y0314400D02*
X0335833Y0309200D01*
X0325833Y0309200D02*
X0325833Y0314400D01*
X0325833Y0289400D02*
X0325833Y0284200D01*
X0335833Y0284200D02*
X0335833Y0289400D01*
X0345833Y0289400D02*
X0345833Y0284200D01*
X0355833Y0284200D02*
X0355833Y0289400D01*
X0355833Y0264400D02*
X0355833Y0259200D01*
X0345833Y0259200D02*
X0345833Y0264400D01*
X0335833Y0264400D02*
X0335833Y0259200D01*
X0325833Y0259200D02*
X0325833Y0264400D01*
X0325833Y0239400D02*
X0325833Y0234200D01*
X0335833Y0234200D02*
X0335833Y0239400D01*
X0345833Y0239400D02*
X0345833Y0234200D01*
X0355833Y0234200D02*
X0355833Y0239400D01*
X0355833Y0214400D02*
X0355833Y0209200D01*
X0345833Y0209200D02*
X0345833Y0214400D01*
X0335833Y0214400D02*
X0335833Y0209200D01*
X0325833Y0209200D02*
X0325833Y0214400D01*
X0325833Y0189400D02*
X0325833Y0184200D01*
X0335833Y0184200D02*
X0335833Y0189400D01*
X0345833Y0189400D02*
X0345833Y0184200D01*
X0355833Y0184200D02*
X0355833Y0189400D01*
X0225933Y0146800D02*
X0220733Y0146800D01*
X0220733Y0136800D02*
X0225933Y0136800D01*
X0225933Y0126800D02*
X0220733Y0126800D01*
X0190933Y0126800D02*
X0185733Y0126800D01*
X0185733Y0136800D02*
X0190933Y0136800D01*
X0190933Y0146800D02*
X0185733Y0146800D01*
X0155933Y0146800D02*
X0150733Y0146800D01*
X0150733Y0136800D02*
X0155933Y0136800D01*
X0155933Y0126800D02*
X0150733Y0126800D01*
X0195733Y0356800D02*
X0200933Y0356800D01*
X0200933Y0366800D02*
X0195733Y0366800D01*
X0195733Y0376800D02*
X0200933Y0376800D01*
X0200933Y0386800D02*
X0195733Y0386800D01*
X0165933Y0386800D02*
X0160733Y0386800D01*
X0160733Y0376800D02*
X0165933Y0376800D01*
X0165933Y0366800D02*
X0160733Y0366800D01*
X0130933Y0366800D02*
X0125733Y0366800D01*
X0125733Y0376800D02*
X0130933Y0376800D01*
X0130933Y0386800D02*
X0125733Y0386800D01*
X0090933Y0386800D02*
X0085733Y0386800D01*
X0085733Y0376800D02*
X0090933Y0376800D01*
X0090933Y0366800D02*
X0085733Y0366800D01*
X0065933Y0366800D02*
X0060733Y0366800D01*
X0060733Y0376800D02*
X0065933Y0376800D01*
X0065933Y0386800D02*
X0060733Y0386800D01*
X0040933Y0386800D02*
X0035733Y0386800D01*
X0035733Y0376800D02*
X0040933Y0376800D01*
X0040933Y0366800D02*
X0035733Y0366800D01*
X0230733Y0371800D02*
X0235933Y0371800D01*
X0235933Y0381800D02*
X0230733Y0381800D01*
D26*
X0256846Y0043434D03*
X0256846Y0040875D03*
X0256846Y0038316D03*
X0256846Y0035757D03*
X0256846Y0033198D03*
X0256846Y0030639D03*
X0256846Y0028080D03*
X0256846Y0025520D03*
X0256846Y0022961D03*
X0256846Y0020402D03*
X0256846Y0017843D03*
X0256846Y0015284D03*
X0256846Y0012725D03*
X0256846Y0010166D03*
X0279821Y0010166D03*
X0279821Y0012725D03*
X0279821Y0015284D03*
X0279821Y0017843D03*
X0279821Y0020402D03*
X0279821Y0022961D03*
X0279821Y0025520D03*
X0279821Y0028080D03*
X0279821Y0030639D03*
X0279821Y0033198D03*
X0279821Y0035757D03*
X0279821Y0038316D03*
X0279821Y0040875D03*
X0279821Y0043434D03*
D27*
X0262073Y0154300D03*
X0254593Y0154300D03*
X0254593Y0191800D03*
X0262073Y0191800D03*
X0262073Y0214300D03*
X0254593Y0214300D03*
X0254593Y0249300D03*
X0262073Y0249300D03*
D28*
X0376806Y0242540D03*
X0376806Y0235060D03*
X0385861Y0238800D03*
X0376806Y0217540D03*
X0376806Y0210060D03*
X0385861Y0213800D03*
X0376806Y0192540D03*
X0376806Y0185060D03*
X0385861Y0188800D03*
X0438806Y0201300D03*
X0447861Y0197560D03*
X0447861Y0205040D03*
X0447861Y0235060D03*
X0447861Y0242540D03*
X0438806Y0238800D03*
X0447861Y0273060D03*
X0447861Y0280540D03*
X0438806Y0276800D03*
X0447361Y0310560D03*
X0447361Y0318040D03*
X0438306Y0314300D03*
X0488806Y0313800D03*
X0497861Y0310060D03*
X0497861Y0317540D03*
X0497861Y0280040D03*
X0497861Y0272560D03*
X0488806Y0276300D03*
X0497861Y0242540D03*
X0497861Y0235060D03*
X0488806Y0238800D03*
X0497861Y0205040D03*
X0497861Y0197560D03*
X0488806Y0201300D03*
X0385861Y0263800D03*
X0376806Y0260060D03*
X0376806Y0267540D03*
X0376806Y0284560D03*
X0376806Y0292040D03*
X0385861Y0288300D03*
X0376806Y0309560D03*
X0376806Y0317040D03*
X0385861Y0313300D03*
D29*
X0411333Y0308859D03*
X0411333Y0303741D03*
X0411333Y0234359D03*
X0411333Y0229241D03*
X0265833Y0229241D03*
X0265833Y0234359D03*
X0248333Y0234359D03*
X0248333Y0229241D03*
X0248333Y0176859D03*
X0248333Y0171741D03*
X0265833Y0171741D03*
X0265833Y0176859D03*
X0258333Y0066859D03*
X0258333Y0061741D03*
X0238333Y0061741D03*
X0238333Y0066859D03*
X0218333Y0066859D03*
X0218333Y0061741D03*
X0198333Y0061741D03*
X0198333Y0066859D03*
X0118333Y0039359D03*
X0118333Y0034241D03*
X0098333Y0029359D03*
X0098333Y0024241D03*
X0088333Y0024241D03*
X0088333Y0029359D03*
X0088333Y0074241D03*
X0088333Y0079359D03*
X0098333Y0079359D03*
X0098333Y0074241D03*
X0278333Y0066859D03*
X0278333Y0061741D03*
X0298333Y0061741D03*
X0298333Y0066859D03*
X0318333Y0066859D03*
X0318333Y0061741D03*
X0338333Y0061741D03*
X0338333Y0066859D03*
X0418333Y0039359D03*
X0418333Y0034241D03*
X0438333Y0029359D03*
X0438333Y0024241D03*
X0448333Y0024241D03*
X0448333Y0029359D03*
X0448333Y0074241D03*
X0448333Y0079359D03*
X0438333Y0079359D03*
X0438333Y0074241D03*
D30*
X0405333Y0184772D03*
X0401593Y0193828D03*
X0409073Y0193828D03*
X0425093Y0196772D03*
X0428833Y0196772D03*
X0432573Y0196772D03*
X0432573Y0205828D03*
X0428833Y0205828D03*
X0425093Y0205828D03*
X0425093Y0234272D03*
X0428833Y0234272D03*
X0432573Y0234272D03*
X0432573Y0243328D03*
X0428833Y0243328D03*
X0425093Y0243328D03*
X0404833Y0259772D03*
X0401093Y0268828D03*
X0408573Y0268828D03*
X0425093Y0271772D03*
X0428833Y0271772D03*
X0432573Y0271772D03*
X0432573Y0280828D03*
X0428833Y0280828D03*
X0425093Y0280828D03*
X0425093Y0309272D03*
X0428833Y0309272D03*
X0432573Y0309272D03*
X0432573Y0318328D03*
X0428833Y0318328D03*
X0425093Y0318328D03*
X0475093Y0318328D03*
X0478833Y0318328D03*
X0482573Y0318328D03*
X0482573Y0309272D03*
X0478833Y0309272D03*
X0475093Y0309272D03*
X0475093Y0280828D03*
X0478833Y0280828D03*
X0482573Y0280828D03*
X0482573Y0271772D03*
X0478833Y0271772D03*
X0475093Y0271772D03*
X0475093Y0243328D03*
X0478833Y0243328D03*
X0482573Y0243328D03*
X0482573Y0234272D03*
X0478833Y0234272D03*
X0475093Y0234272D03*
X0475093Y0205828D03*
X0478833Y0205828D03*
X0482573Y0205828D03*
X0482573Y0196772D03*
X0478833Y0196772D03*
X0475093Y0196772D03*
D31*
X0338333Y0084753D03*
X0338333Y0078847D03*
X0318333Y0078847D03*
X0318333Y0084753D03*
X0298333Y0084753D03*
X0298333Y0078847D03*
X0278333Y0078847D03*
X0278333Y0084753D03*
X0258333Y0084753D03*
X0258333Y0078847D03*
X0238333Y0078847D03*
X0238333Y0084753D03*
X0218333Y0084753D03*
X0218333Y0078847D03*
X0198333Y0078847D03*
X0198333Y0084753D03*
X0118333Y0054753D03*
X0118333Y0048847D03*
X0418333Y0048847D03*
X0418333Y0054753D03*
X0047286Y0296800D03*
X0041380Y0296800D03*
D32*
X0173333Y0225646D03*
X0173333Y0218954D03*
X0184333Y0218954D03*
X0184333Y0225646D03*
X0402833Y0205146D03*
X0402833Y0198454D03*
X0402833Y0273454D03*
X0402833Y0280146D03*
X0236833Y0044146D03*
X0236833Y0037454D03*
D33*
X0353333Y0134300D03*
X0363333Y0144300D03*
X0383333Y0154300D03*
X0383333Y0124300D03*
X0453333Y0134300D03*
X0463333Y0144300D03*
X0483333Y0154300D03*
X0483333Y0124300D03*
X0498333Y0069300D03*
X0478333Y0059300D03*
X0468333Y0049300D03*
X0498333Y0039300D03*
X0483333Y0349300D03*
X0463333Y0369300D03*
X0453333Y0359300D03*
X0483333Y0379300D03*
X0383333Y0379300D03*
X0363333Y0369300D03*
X0353333Y0359300D03*
X0383333Y0349300D03*
X0068333Y0069300D03*
X0048333Y0059300D03*
X0038333Y0049300D03*
X0068333Y0039300D03*
D34*
X0283103Y0158450D02*
X0288563Y0158450D01*
X0288563Y0165150D02*
X0283103Y0165150D01*
X0283103Y0171850D02*
X0288563Y0171850D01*
X0288563Y0178550D02*
X0283103Y0178550D01*
X0283103Y0185250D02*
X0288563Y0185250D01*
X0288563Y0218450D02*
X0283103Y0218450D01*
X0283103Y0225150D02*
X0288563Y0225150D01*
X0288563Y0231850D02*
X0283103Y0231850D01*
X0283103Y0238550D02*
X0288563Y0238550D01*
X0288563Y0245250D02*
X0283103Y0245250D01*
D35*
X0335774Y0244800D03*
X0340892Y0244800D03*
X0340892Y0219800D03*
X0335774Y0219800D03*
X0335774Y0194800D03*
X0340892Y0194800D03*
X0340892Y0269800D03*
X0335774Y0269800D03*
X0335774Y0294800D03*
X0340892Y0294800D03*
X0340892Y0319800D03*
X0335774Y0319800D03*
X0032892Y0296800D03*
X0027774Y0296800D03*
X0090774Y0066800D03*
X0095892Y0066800D03*
X0095892Y0016800D03*
X0090774Y0016800D03*
X0440774Y0016800D03*
X0445892Y0016800D03*
X0445892Y0066800D03*
X0440774Y0066800D03*
D36*
X0292703Y0307115D03*
X0292703Y0367115D03*
D37*
X0280892Y0367115D03*
X0280892Y0307115D03*
D38*
X0284829Y0324831D03*
X0257270Y0307115D03*
X0284829Y0289398D03*
X0284829Y0349398D03*
X0257270Y0367115D03*
X0284829Y0384831D03*
D39*
X0155333Y0340800D03*
X0123333Y0340800D03*
X0106333Y0386800D03*
X0027333Y0305800D03*
X0117333Y0256800D03*
X0029892Y0209859D03*
X0068333Y0154800D03*
X0076333Y0125800D03*
X0105333Y0125800D03*
X0129333Y0125800D03*
X0148333Y0066800D03*
X0149333Y0046800D03*
X0153333Y0024300D03*
X0115833Y0021800D03*
X0105833Y0014300D03*
X0105833Y0029300D03*
X0108333Y0051800D03*
X0098333Y0059300D03*
X0198333Y0054300D03*
X0218333Y0054300D03*
X0238333Y0054300D03*
X0258333Y0054300D03*
X0285833Y0054300D03*
X0300833Y0043300D03*
X0305833Y0054300D03*
X0323333Y0054300D03*
X0323333Y0046800D03*
X0363333Y0054300D03*
X0388333Y0046800D03*
X0383333Y0029300D03*
X0373333Y0029300D03*
X0418333Y0007800D03*
X0428333Y0039359D03*
X0438333Y0059300D03*
X0453333Y0036800D03*
X0455833Y0019300D03*
X0388333Y0066800D03*
X0248833Y0019300D03*
X0247333Y0014800D03*
X0207333Y0122800D03*
X0247333Y0265800D03*
X0304333Y0265800D03*
X0432333Y0267300D03*
X0438333Y0272800D03*
X0432333Y0304800D03*
X0437333Y0309800D03*
X0482333Y0303800D03*
X0488333Y0309800D03*
X0488333Y0271800D03*
X0482333Y0267300D03*
X0488833Y0234800D03*
X0482333Y0229800D03*
X0488333Y0196800D03*
X0482133Y0192400D03*
X0438833Y0197300D03*
X0432333Y0192300D03*
X0432833Y0229800D03*
X0438333Y0234800D03*
D40*
X0238333Y0201800D03*
X0195333Y0218300D03*
X0235379Y0165150D03*
X0206833Y0286800D03*
X0228333Y0326800D03*
X0028833Y0160300D03*
D41*
X0128333Y0166800D03*
X0128333Y0171800D03*
X0128333Y0176800D03*
X0301633Y0038500D03*
X0302633Y0033200D03*
X0293133Y0030600D03*
X0296933Y0025500D03*
X0286533Y0028100D03*
X0310533Y0035800D03*
X0362333Y0191300D03*
X0362333Y0216300D03*
X0362333Y0241300D03*
X0361833Y0266300D03*
X0362333Y0290800D03*
X0361833Y0316300D03*
X0407333Y0282300D03*
X0407333Y0207300D03*
D42*
X0403333Y0161800D03*
X0433333Y0161800D03*
X0433333Y0116800D03*
X0403333Y0116800D03*
X0365396Y0078800D03*
X0351333Y0040800D03*
X0333333Y0116800D03*
X0333333Y0161800D03*
X0185333Y0040800D03*
X0171333Y0078800D03*
X0503333Y0116800D03*
X0503333Y0161800D03*
X0503333Y0341800D03*
X0503333Y0386800D03*
X0433333Y0386800D03*
X0403333Y0386800D03*
X0403333Y0341800D03*
X0433333Y0341800D03*
X0333333Y0341800D03*
X0333333Y0386800D03*
M02*
