%
M48
M72
T01C0.0120
T02C0.0150
T03C0.0197
T04C0.0400
T05C0.0420
T06C0.0472
T07C0.0512
T08C0.0630
T09C0.0906
T10C0.0935
T11C0.1024
T12C0.1181
T13C0.1260
%
T01
X12833Y16680
X12833Y17180
X12833Y17680
X30163Y3850
X30263Y3320
X29313Y3060
X29693Y2550
X28653Y2810
X31053Y3580
X36233Y19130
X36233Y21630
X36233Y24130
X36183Y26630
X36233Y29080
X36183Y31630
X40733Y28230
X40733Y20730
T02
X41833Y20680
X41833Y20180
X41833Y19680
X41833Y19180
X41833Y18680
X41833Y18180
X41833Y17680
X41333Y17680
X40833Y17680
X40333Y17680
X39833Y17680
X39333Y17680
X38833Y17680
X38333Y17680
X37833Y17680
X37333Y17680
X36833Y17680
X36333Y17680
X35833Y17680
X35333Y17680
X34833Y17680
X34333Y17680
X33833Y17680
X33333Y17680
X32833Y17680
X32333Y17680
X31833Y17680
X31833Y17180
X31833Y16680
X31833Y16180
X31833Y15680
X31833Y15180
X31833Y14680
X31833Y14180
X31833Y13680
X31833Y13180
X31833Y12680
X31833Y12180
X31833Y11680
X31833Y11180
X31833Y10680
X31833Y10180
X31333Y10180
X30833Y10180
X30333Y10180
X29833Y10180
X29333Y10180
X28833Y10180
X28333Y10180
X27833Y10180
X27333Y10180
X26833Y10180
X26333Y10180
X25833Y10180
X25333Y10180
X24833Y10180
X24333Y10180
X23833Y10180
X23333Y10180
X22833Y10180
X22333Y10180
X21833Y10180
X21333Y10180
X20833Y10180
X20333Y10180
X19833Y10180
X19333Y10180
X18833Y10180
X18333Y10180
X17833Y10180
X17333Y10180
X16833Y10180
X16333Y10180
X15833Y10180
X15333Y10180
X14833Y10180
X14333Y10180
X13833Y10180
X13333Y10180
X12833Y10180
X12333Y10180
X11833Y10180
X11333Y10180
X10833Y10180
X10333Y10180
X9833Y10180
X9333Y10180
X8833Y10180
X8333Y10180
X7833Y10180
X7333Y10180
X6833Y10180
X6333Y10180
X5833Y10180
X5333Y10180
X4833Y10180
X4333Y10180
X3833Y10180
X3333Y10180
X2833Y10180
X2333Y10180
X1833Y10180
X31833Y18180
X31833Y18680
X31833Y19180
X31833Y19680
X31833Y20180
X31833Y20680
X32333Y20180
X32833Y20180
X33333Y20180
X33833Y20180
X34333Y20180
X34833Y20180
X35333Y20180
X35833Y20180
X36333Y20180
X36833Y20180
X37333Y20180
X37833Y20180
X38333Y20180
X38833Y20180
X39333Y19680
X39333Y19180
X39333Y18680
X39333Y18180
X41833Y17180
X42333Y17680
X42833Y17680
X43333Y17680
X43833Y17680
X44333Y17680
X44833Y17680
X45333Y17680
X45833Y17680
X46333Y17680
X46833Y17680
X46833Y18180
X46833Y18680
X46833Y19180
X46833Y19680
X46833Y20180
X46833Y20680
X46833Y21180
X46833Y21680
X46833Y22180
X46833Y22680
X46833Y23180
X46833Y23680
X46833Y24180
X46833Y24680
X46833Y25180
X46333Y25180
X45833Y25180
X45333Y25180
X44833Y25180
X44333Y25180
X43833Y25180
X43333Y25180
X42833Y25180
X42333Y25180
X41833Y25180
X41333Y25180
X40833Y25180
X40333Y25180
X39833Y25180
X39333Y25180
X38833Y25180
X38333Y25180
X37833Y25180
X37333Y25180
X36833Y25180
X36333Y25180
X35833Y25180
X35333Y25180
X34833Y25180
X34333Y25180
X33833Y25180
X33333Y25180
X32833Y25180
X32333Y25180
X31833Y25180
X31833Y24680
X31833Y24180
X31833Y23680
X31833Y23180
X31833Y22680
X31833Y22180
X31833Y21680
X31833Y21180
X32333Y22680
X32833Y22680
X33333Y22680
X33833Y22680
X34333Y22680
X34833Y22680
X35333Y22680
X35833Y22680
X36333Y22680
X36833Y22680
X37333Y22680
X37833Y22680
X38333Y22680
X38833Y22680
X39333Y22180
X39333Y21680
X39333Y21180
X39333Y20680
X41833Y21180
X41833Y21680
X41833Y22180
X41833Y22680
X41833Y23180
X41833Y23680
X41833Y24180
X41833Y24680
X41833Y25680
X41833Y26180
X41833Y26680
X41833Y27180
X41833Y27680
X41833Y28180
X41833Y28680
X41833Y29180
X41833Y29680
X42333Y28930
X42833Y28930
X43333Y28930
X43833Y28930
X44333Y28930
X44833Y28930
X45333Y28930
X45833Y28930
X46333Y28930
X46833Y28680
X46833Y28180
X46833Y27680
X46833Y27180
X46833Y26680
X46833Y26180
X46833Y25680
X47333Y25180
X47833Y25180
X48333Y25180
X48833Y25180
X49333Y25180
X49833Y25180
X50333Y25180
X50833Y25180
X51333Y25180
X51833Y25180
X51833Y21430
X51333Y21430
X50833Y21430
X50333Y21430
X49833Y21430
X49333Y21430
X48833Y21430
X48333Y21430
X47833Y21430
X47333Y21430
X46333Y21430
X45833Y21430
X45333Y21430
X44833Y21430
X44333Y21430
X43833Y21430
X43333Y21430
X42833Y21430
X42333Y21430
X39333Y23180
X39333Y23680
X39333Y24180
X39333Y24680
X39333Y25680
X39333Y26180
X39333Y26680
X39333Y27180
X38833Y27680
X38333Y27680
X37833Y27680
X37333Y27680
X36833Y27680
X36333Y27680
X35833Y27680
X35333Y27680
X34833Y27680
X34333Y27680
X33833Y27680
X33333Y27680
X32833Y27680
X32333Y27680
X31833Y27680
X31833Y28180
X31833Y28680
X31833Y29180
X31833Y29680
X31833Y30180
X31833Y30680
X31833Y31180
X31833Y31680
X31833Y32180
X31833Y32680
X31833Y33180
X31833Y33680
X31833Y34180
X31833Y34680
X31833Y35180
X31833Y35680
X31833Y36180
X31833Y36680
X31833Y37180
X31833Y37680
X31833Y38180
X31833Y38680
X31833Y39180
X31833Y39680
X31833Y40180
X32333Y32680
X32833Y32680
X33333Y32680
X33833Y32680
X34333Y32680
X34833Y32680
X35333Y32680
X35833Y32680
X36333Y32680
X36833Y32680
X37333Y32680
X37833Y32680
X38333Y32680
X38833Y32680
X39333Y32680
X39333Y32180
X39833Y32680
X40333Y32680
X40833Y32680
X41333Y32680
X41833Y32680
X41833Y32180
X42333Y32680
X42833Y32680
X43333Y32680
X43833Y32680
X44333Y32680
X44833Y32680
X45333Y32680
X45833Y32680
X46333Y32680
X46833Y32680
X46833Y32180
X47333Y32680
X47833Y32680
X48333Y32680
X48833Y32680
X49333Y32680
X49833Y32680
X50333Y32680
X50833Y32680
X51333Y32680
X51833Y32680
X51833Y28930
X51333Y28930
X50833Y28930
X50333Y28930
X49833Y28930
X49333Y28930
X48833Y28930
X48333Y28930
X47833Y28930
X47333Y28930
X46833Y29180
X46833Y29680
X46833Y30180
X46833Y30680
X46833Y31180
X46833Y31680
X41833Y31680
X41833Y31180
X41833Y30680
X41833Y30180
X39333Y29680
X39333Y29180
X39333Y28680
X39333Y28180
X38833Y30180
X38333Y30180
X37833Y30180
X37333Y30180
X36833Y30180
X36333Y30180
X35833Y30180
X35333Y30180
X34833Y30180
X34333Y30180
X33833Y30180
X33333Y30180
X32833Y30180
X32333Y30180
X31833Y27180
X31833Y26680
X31833Y26180
X31833Y25680
X39333Y30680
X39333Y31180
X39333Y31680
X41833Y33180
X41833Y33680
X41833Y34180
X41833Y34680
X41833Y35180
X41833Y35680
X41833Y36180
X41833Y36680
X41833Y37180
X41833Y37680
X41833Y38180
X41833Y38680
X41833Y39180
X41833Y39680
X41833Y40180
X47333Y17680
X47833Y17680
X48333Y17680
X48833Y17680
X49333Y17680
X49833Y17680
X50333Y17680
X50833Y17680
X51333Y17680
X51833Y17680
X51833Y10180
X51333Y10180
X50833Y10180
X50333Y10180
X49833Y10180
X49333Y10180
X48833Y10180
X48333Y10180
X47833Y10180
X47333Y10180
X46833Y10180
X46333Y10180
X45833Y10180
X45333Y10180
X44833Y10180
X44333Y10180
X43833Y10180
X43333Y10180
X42833Y10180
X42333Y10180
X41833Y10180
X41333Y10180
X40833Y10180
X40333Y10180
X39833Y10180
X39333Y10180
X38833Y10180
X38333Y10180
X37833Y10180
X37333Y10180
X36833Y10180
X36333Y10180
X35833Y10180
X35333Y10180
X34833Y10180
X34333Y10180
X33833Y10180
X33333Y10180
X32833Y10180
X32333Y10180
X41833Y10680
X41833Y11180
X41833Y11680
X41833Y12180
X41833Y12680
X41833Y13180
X41833Y13680
X41833Y14180
X41833Y14680
X41833Y15180
X41833Y15680
X41833Y16180
X41833Y16680
T03
X43233Y19230
X43883Y19730
X43283Y22980
X43833Y23480
X43233Y26730
X43833Y27280
X43233Y30480
X43733Y30980
X48233Y30380
X48833Y30980
X48833Y27180
X48233Y26730
X48883Y23480
X48233Y22980
X48833Y19680
X48213Y19240
X38833Y6680
X38833Y4680
X38333Y2930
X37333Y2930
X36333Y5430
X32333Y5430
X32333Y4680
X30583Y5430
X30083Y4330
X28583Y5430
X25833Y5430
X23833Y5430
X21833Y5430
X19833Y5430
X15333Y2430
X14933Y4680
X14833Y6680
X10833Y5180
X9833Y5930
X10583Y2930
X11583Y2180
X10583Y1430
X10533Y12580
X12933Y12580
X7633Y12580
X6833Y15480
X2989Y20986
X11733Y25680
X2733Y30580
X12333Y34080
X15533Y34080
X10633Y38680
X24733Y26580
X30433Y26580
X20733Y12280
X24883Y1930
X24733Y1480
X41833Y780
X42833Y3936
X43833Y5930
X45333Y3680
X45583Y1930
T04
X4833Y1680
X5833Y1680
X16333Y1680
X17333Y1680
X18333Y1680
X20333Y1680
X21333Y1680
X22333Y1680
X30833Y1680
X31833Y1680
X34833Y1680
X35833Y1680
X36833Y1680
X37833Y1680
X47833Y1680
X48833Y1680
X43233Y13430
X43233Y14430
X40433Y14430
X40433Y13430
X35583Y18680
X34583Y18680
X33583Y18680
X32583Y18680
X32583Y21180
X33583Y21180
X34583Y21180
X35583Y21180
X35583Y23680
X34583Y23680
X33583Y23680
X32583Y23680
X32583Y26180
X33583Y26180
X34583Y26180
X35583Y26180
X35583Y28680
X34583Y28680
X33583Y28680
X32583Y28680
X32583Y31180
X33583Y31180
X34583Y31180
X35583Y31180
X40333Y30880
X40333Y29880
X40333Y28880
X40333Y31880
X40433Y35930
X40433Y36930
X43233Y36930
X43233Y35930
X45833Y31780
X45833Y30780
X45833Y29780
X45833Y28030
X45833Y27030
X45833Y26030
X45833Y24280
X45833Y23280
X45833Y22280
X45833Y20530
X45833Y19530
X45833Y18530
X50833Y18530
X50833Y19530
X50833Y20530
X50833Y22280
X50833Y23280
X50833Y24280
X50833Y26030
X50833Y27030
X50833Y28030
X50833Y29780
X50833Y30780
X50833Y31780
X40333Y24430
X40333Y23430
X40333Y22430
X40333Y21430
X22333Y14680
X22333Y13680
X22333Y12680
X18833Y12680
X18833Y13680
X18833Y14680
X15333Y14680
X15333Y13680
X15333Y12680
X10333Y17180
X9333Y17180
X8333Y17180
X7333Y17180
X6333Y17180
X5333Y17180
X4333Y17180
X3333Y17180
X3333Y18680
X4333Y18680
X5333Y18680
X6333Y18680
X7333Y18680
X8333Y18680
X9333Y18680
X10333Y18680
X10333Y19680
X9333Y19680
X8333Y19680
X7333Y19680
X6333Y19680
X5333Y19680
X4333Y19680
X3333Y19680
X5833Y14080
X5833Y13280
X3833Y13680
X13333Y18680
X14333Y18680
X14333Y19680
X13333Y19680
X13333Y20680
X14333Y20680
X14333Y21680
X13333Y21680
X13333Y22680
X14333Y22680
X14333Y23680
X13333Y23680
X13333Y24680
X14333Y24680
X15833Y24680
X15833Y23680
X15833Y22680
X15833Y21680
X15833Y20680
X15833Y19680
X15833Y18680
X15833Y26680
X15833Y27680
X15833Y28680
X15833Y29680
X15833Y30680
X15833Y31680
X15833Y32680
X14333Y32680
X13333Y32680
X13333Y31680
X13333Y30680
X14333Y30680
X14333Y31680
X14333Y29680
X13333Y29680
X13333Y28680
X13333Y27680
X14333Y27680
X14333Y28680
X14333Y26680
X13333Y26680
X10333Y31680
X9333Y31680
X8333Y31680
X7333Y31680
X6333Y31680
X5333Y31680
X4333Y31680
X3333Y31680
X3333Y32680
X4333Y32680
X5333Y32680
X6333Y32680
X7333Y32680
X8333Y32680
X9333Y32680
X10333Y32680
X10333Y34180
X9333Y34180
X8333Y34180
X7333Y34180
X6333Y34180
X5333Y34180
X4333Y34180
X3333Y34180
X3833Y36680
X3833Y37680
X3833Y38680
X6333Y38680
X6333Y37680
X6333Y36680
X8833Y36680
X8833Y37680
X8833Y38680
X12833Y38680
X12833Y37680
X12833Y36680
X16333Y36680
X16333Y37680
X16333Y38680
X19833Y38680
X19833Y37680
X19833Y36680
X19833Y35680
X23333Y37180
X23333Y38180
T05
X28583Y24525
X28583Y23855
X28583Y23185
X28583Y22515
X28583Y21845
X28583Y18525
X28583Y17855
X28583Y17185
X28583Y16515
X28583Y15845
T06
X23538Y16515
X23833Y20180
X19533Y21830
X20683Y28680
X22833Y32680
X2883Y16030
T07
X6833Y6930
X4833Y5930
X3833Y4930
X6833Y3930
X35333Y13430
X36333Y14430
X38333Y15430
X38333Y12430
X45333Y13430
X46333Y14430
X48333Y15430
X48333Y12430
X49833Y6930
X47833Y5930
X46833Y4930
X49833Y3930
X48333Y34930
X46333Y36930
X45333Y35930
X48333Y37930
X38333Y37930
X36333Y36930
X35333Y35930
X38333Y34930
T08
X29270Y36711
X29270Y30711
T09
X28089Y30711
X28089Y36711
T10
X5083Y14680
X3833Y14680
X3833Y12680
X5083Y12680
T11
X28483Y28940
X28483Y32483
X28483Y34940
X28483Y38483
T12
X25727Y36711
X25727Y30711
T13
X33333Y34180
X33333Y38680
X40333Y38680
X43333Y38680
X43333Y34180
X40333Y34180
X50333Y34180
X50333Y38680
X50333Y16180
X50333Y11680
X43333Y11680
X40333Y11680
X36540Y7880
X35133Y4080
X33333Y11680
X33333Y16180
X40333Y16180
X43333Y16180
X18533Y4080
X17133Y7880
M30
