%
M48
M72
T01C0.01200
T02C0.01500
T03C0.01969
T04C0.04000
T05C0.04200
T06C0.04724
T07C0.05118
T08C0.06299
T09C0.09055
T10C0.09350
T11C0.10236
T12C0.11811
T13C0.12598
%
T01
X128333Y166800
X128333Y171800
X128333Y176800
X301633Y38500
X302633Y33200
X293133Y30600
X296933Y25500
X286533Y28100
X310533Y35800
X362333Y191300
X362333Y216300
X362333Y241300
X361833Y266300
X362333Y290800
X361833Y316300
X407333Y282300
X407333Y207300
T02
X418333Y206800
X418333Y201800
X418333Y196800
X418333Y191800
X418333Y186800
X418333Y181800
X418333Y176800
X413333Y176800
X408333Y176800
X403333Y176800
X398333Y176800
X393333Y176800
X388333Y176800
X383333Y176800
X378333Y176800
X373333Y176800
X368333Y176800
X363333Y176800
X358333Y176800
X353333Y176800
X348333Y176800
X343333Y176800
X338333Y176800
X333333Y176800
X328333Y176800
X323333Y176800
X318333Y176800
X318333Y171800
X318333Y166800
X318333Y161800
X318333Y156800
X318333Y151800
X318333Y146800
X318333Y141800
X318333Y136800
X318333Y131800
X318333Y126800
X318333Y121800
X318333Y116800
X318333Y111800
X318333Y106800
X318333Y101800
X313333Y101800
X308333Y101800
X303333Y101800
X298333Y101800
X293333Y101800
X288333Y101800
X283333Y101800
X278333Y101800
X273333Y101800
X268333Y101800
X263333Y101800
X258333Y101800
X253333Y101800
X248333Y101800
X243333Y101800
X238333Y101800
X233333Y101800
X228333Y101800
X223333Y101800
X218333Y101800
X213333Y101800
X208333Y101800
X203333Y101800
X198333Y101800
X193333Y101800
X188333Y101800
X183333Y101800
X178333Y101800
X173333Y101800
X168333Y101800
X163333Y101800
X158333Y101800
X153333Y101800
X148333Y101800
X143333Y101800
X138333Y101800
X133333Y101800
X128333Y101800
X123333Y101800
X118333Y101800
X113333Y101800
X108333Y101800
X103333Y101800
X98333Y101800
X93333Y101800
X88333Y101800
X83333Y101800
X78333Y101800
X73333Y101800
X68333Y101800
X63333Y101800
X58333Y101800
X53333Y101800
X48333Y101800
X43333Y101800
X38333Y101800
X33333Y101800
X28333Y101800
X23333Y101800
X18333Y101800
X318333Y181800
X318333Y186800
X318333Y191800
X318333Y196800
X318333Y201800
X318333Y206800
X323333Y201800
X328333Y201800
X333333Y201800
X338333Y201800
X343333Y201800
X348333Y201800
X353333Y201800
X358333Y201800
X363333Y201800
X368333Y201800
X373333Y201800
X378333Y201800
X383333Y201800
X388333Y201800
X393333Y196800
X393333Y191800
X393333Y186800
X393333Y181800
X418333Y171800
X423333Y176800
X428333Y176800
X433333Y176800
X438333Y176800
X443333Y176800
X448333Y176800
X453333Y176800
X458333Y176800
X463333Y176800
X468333Y176800
X468333Y181800
X468333Y186800
X468333Y191800
X468333Y196800
X468333Y201800
X468333Y206800
X468333Y211800
X468333Y216800
X468333Y221800
X468333Y226800
X468333Y231800
X468333Y236800
X468333Y241800
X468333Y246800
X468333Y251800
X463333Y251800
X458333Y251800
X453333Y251800
X448333Y251800
X443333Y251800
X438333Y251800
X433333Y251800
X428333Y251800
X423333Y251800
X418333Y251800
X413333Y251800
X408333Y251800
X403333Y251800
X398333Y251800
X393333Y251800
X388333Y251800
X383333Y251800
X378333Y251800
X373333Y251800
X368333Y251800
X363333Y251800
X358333Y251800
X353333Y251800
X348333Y251800
X343333Y251800
X338333Y251800
X333333Y251800
X328333Y251800
X323333Y251800
X318333Y251800
X318333Y246800
X318333Y241800
X318333Y236800
X318333Y231800
X318333Y226800
X318333Y221800
X318333Y216800
X318333Y211800
X323333Y226800
X328333Y226800
X333333Y226800
X338333Y226800
X343333Y226800
X348333Y226800
X353333Y226800
X358333Y226800
X363333Y226800
X368333Y226800
X373333Y226800
X378333Y226800
X383333Y226800
X388333Y226800
X393333Y221800
X393333Y216800
X393333Y211800
X393333Y206800
X418333Y211800
X418333Y216800
X418333Y221800
X418333Y226800
X418333Y231800
X418333Y236800
X418333Y241800
X418333Y246800
X418333Y256800
X418333Y261800
X418333Y266800
X418333Y271800
X418333Y276800
X418333Y281800
X418333Y286800
X418333Y291800
X418333Y296800
X423333Y289300
X428333Y289300
X433333Y289300
X438333Y289300
X443333Y289300
X448333Y289300
X453333Y289300
X458333Y289300
X463333Y289300
X468333Y286800
X468333Y281800
X468333Y276800
X468333Y271800
X468333Y266800
X468333Y261800
X468333Y256800
X473333Y251800
X478333Y251800
X483333Y251800
X488333Y251800
X493333Y251800
X498333Y251800
X503333Y251800
X508333Y251800
X513333Y251800
X518333Y251800
X518333Y214300
X513333Y214300
X508333Y214300
X503333Y214300
X498333Y214300
X493333Y214300
X488333Y214300
X483333Y214300
X478333Y214300
X473333Y214300
X463333Y214300
X458333Y214300
X453333Y214300
X448333Y214300
X443333Y214300
X438333Y214300
X433333Y214300
X428333Y214300
X423333Y214300
X393333Y231800
X393333Y236800
X393333Y241800
X393333Y246800
X393333Y256800
X393333Y261800
X393333Y266800
X393333Y271800
X388333Y276800
X383333Y276800
X378333Y276800
X373333Y276800
X368333Y276800
X363333Y276800
X358333Y276800
X353333Y276800
X348333Y276800
X343333Y276800
X338333Y276800
X333333Y276800
X328333Y276800
X323333Y276800
X318333Y276800
X318333Y281800
X318333Y286800
X318333Y291800
X318333Y296800
X318333Y301800
X318333Y306800
X318333Y311800
X318333Y316800
X318333Y321800
X318333Y326800
X318333Y331800
X318333Y336800
X318333Y341800
X318333Y346800
X318333Y351800
X318333Y356800
X318333Y361800
X318333Y366800
X318333Y371800
X318333Y376800
X318333Y381800
X318333Y386800
X318333Y391800
X318333Y396800
X318333Y401800
X323333Y326800
X328333Y326800
X333333Y326800
X338333Y326800
X343333Y326800
X348333Y326800
X353333Y326800
X358333Y326800
X363333Y326800
X368333Y326800
X373333Y326800
X378333Y326800
X383333Y326800
X388333Y326800
X393333Y326800
X393333Y321800
X398333Y326800
X403333Y326800
X408333Y326800
X413333Y326800
X418333Y326800
X418333Y321800
X423333Y326800
X428333Y326800
X433333Y326800
X438333Y326800
X443333Y326800
X448333Y326800
X453333Y326800
X458333Y326800
X463333Y326800
X468333Y326800
X468333Y321800
X473333Y326800
X478333Y326800
X483333Y326800
X488333Y326800
X493333Y326800
X498333Y326800
X503333Y326800
X508333Y326800
X513333Y326800
X518333Y326800
X518333Y289300
X513333Y289300
X508333Y289300
X503333Y289300
X498333Y289300
X493333Y289300
X488333Y289300
X483333Y289300
X478333Y289300
X473333Y289300
X468333Y291800
X468333Y296800
X468333Y301800
X468333Y306800
X468333Y311800
X468333Y316800
X418333Y316800
X418333Y311800
X418333Y306800
X418333Y301800
X393333Y296800
X393333Y291800
X393333Y286800
X393333Y281800
X388333Y301800
X383333Y301800
X378333Y301800
X373333Y301800
X368333Y301800
X363333Y301800
X358333Y301800
X353333Y301800
X348333Y301800
X343333Y301800
X338333Y301800
X333333Y301800
X328333Y301800
X323333Y301800
X318333Y271800
X318333Y266800
X318333Y261800
X318333Y256800
X393333Y306800
X393333Y311800
X393333Y316800
X418333Y331800
X418333Y336800
X418333Y341800
X418333Y346800
X418333Y351800
X418333Y356800
X418333Y361800
X418333Y366800
X418333Y371800
X418333Y376800
X418333Y381800
X418333Y386800
X418333Y391800
X418333Y396800
X418333Y401800
X473333Y176800
X478333Y176800
X483333Y176800
X488333Y176800
X493333Y176800
X498333Y176800
X503333Y176800
X508333Y176800
X513333Y176800
X518333Y176800
X518333Y101800
X513333Y101800
X508333Y101800
X503333Y101800
X498333Y101800
X493333Y101800
X488333Y101800
X483333Y101800
X478333Y101800
X473333Y101800
X468333Y101800
X463333Y101800
X458333Y101800
X453333Y101800
X448333Y101800
X443333Y101800
X438333Y101800
X433333Y101800
X428333Y101800
X423333Y101800
X418333Y101800
X413333Y101800
X408333Y101800
X403333Y101800
X398333Y101800
X393333Y101800
X388333Y101800
X383333Y101800
X378333Y101800
X373333Y101800
X368333Y101800
X363333Y101800
X358333Y101800
X353333Y101800
X348333Y101800
X343333Y101800
X338333Y101800
X333333Y101800
X328333Y101800
X323333Y101800
X418333Y106800
X418333Y111800
X418333Y116800
X418333Y121800
X418333Y126800
X418333Y131800
X418333Y136800
X418333Y141800
X418333Y146800
X418333Y151800
X418333Y156800
X418333Y161800
X418333Y166800
T03
X432333Y192300
X438833Y197300
X432833Y229800
X438333Y234800
X432333Y267300
X438333Y272800
X432333Y304800
X437333Y309800
X482333Y303800
X488333Y309800
X488333Y271800
X482333Y267300
X488833Y234800
X482333Y229800
X488333Y196800
X482133Y192400
X388333Y66800
X388333Y46800
X383333Y29300
X373333Y29300
X363333Y54300
X323333Y54300
X323333Y46800
X305833Y54300
X300833Y43300
X285833Y54300
X258333Y54300
X238333Y54300
X218333Y54300
X198333Y54300
X153333Y24300
X149333Y46800
X148333Y66800
X108333Y51800
X98333Y59300
X105833Y29300
X115833Y21800
X105833Y14300
X105333Y125800
X129333Y125800
X76333Y125800
X68333Y154800
X29892Y209859
X117333Y256800
X27333Y305800
X123333Y340800
X155333Y340800
X106333Y386800
X247333Y265800
X304333Y265800
X207333Y122800
X248833Y19300
X247333Y14800
X418333Y7800
X428333Y39359
X438333Y59300
X453333Y36800
X455833Y19300
T04
X48333Y16800
X58333Y16800
X163333Y16800
X173333Y16800
X183333Y16800
X203333Y16800
X213333Y16800
X223333Y16800
X308333Y16800
X318333Y16800
X348333Y16800
X358333Y16800
X368333Y16800
X378333Y16800
X478333Y16800
X488333Y16800
X432333Y134300
X432333Y144300
X404333Y144300
X404333Y134300
X355833Y186800
X345833Y186800
X335833Y186800
X325833Y186800
X325833Y211800
X335833Y211800
X345833Y211800
X355833Y211800
X355833Y236800
X345833Y236800
X335833Y236800
X325833Y236800
X325833Y261800
X335833Y261800
X345833Y261800
X355833Y261800
X355833Y286800
X345833Y286800
X335833Y286800
X325833Y286800
X325833Y311800
X335833Y311800
X345833Y311800
X355833Y311800
X403333Y308800
X403333Y298800
X403333Y288800
X403333Y318800
X404333Y359300
X404333Y369300
X432333Y369300
X432333Y359300
X458333Y317800
X458333Y307800
X458333Y297800
X458333Y280300
X458333Y270300
X458333Y260300
X458333Y242800
X458333Y232800
X458333Y222800
X458333Y205300
X458333Y195300
X458333Y185300
X508333Y185300
X508333Y195300
X508333Y205300
X508333Y222800
X508333Y232800
X508333Y242800
X508333Y260300
X508333Y270300
X508333Y280300
X508333Y297800
X508333Y307800
X508333Y317800
X403333Y244300
X403333Y234300
X403333Y224300
X403333Y214300
X223333Y146800
X223333Y136800
X223333Y126800
X188333Y126800
X188333Y136800
X188333Y146800
X153333Y146800
X153333Y136800
X153333Y126800
X103333Y171800
X93333Y171800
X83333Y171800
X73333Y171800
X63333Y171800
X53333Y171800
X43333Y171800
X33333Y171800
X33333Y186800
X43333Y186800
X53333Y186800
X63333Y186800
X73333Y186800
X83333Y186800
X93333Y186800
X103333Y186800
X103333Y196800
X93333Y196800
X83333Y196800
X73333Y196800
X63333Y196800
X53333Y196800
X43333Y196800
X33333Y196800
X58333Y140800
X58333Y132800
X38333Y136800
X133333Y186800
X143333Y186800
X143333Y196800
X133333Y196800
X133333Y206800
X143333Y206800
X143333Y216800
X133333Y216800
X133333Y226800
X143333Y226800
X143333Y236800
X133333Y236800
X133333Y246800
X143333Y246800
X158333Y246800
X158333Y236800
X158333Y226800
X158333Y216800
X158333Y206800
X158333Y196800
X158333Y186800
X158333Y266800
X158333Y276800
X158333Y286800
X158333Y296800
X158333Y306800
X158333Y316800
X158333Y326800
X143333Y326800
X133333Y326800
X133333Y316800
X133333Y306800
X143333Y306800
X143333Y316800
X143333Y296800
X133333Y296800
X133333Y286800
X133333Y276800
X143333Y276800
X143333Y286800
X143333Y266800
X133333Y266800
X103333Y316800
X93333Y316800
X83333Y316800
X73333Y316800
X63333Y316800
X53333Y316800
X43333Y316800
X33333Y316800
X33333Y326800
X43333Y326800
X53333Y326800
X63333Y326800
X73333Y326800
X83333Y326800
X93333Y326800
X103333Y326800
X103333Y341800
X93333Y341800
X83333Y341800
X73333Y341800
X63333Y341800
X53333Y341800
X43333Y341800
X33333Y341800
X38333Y366800
X38333Y376800
X38333Y386800
X63333Y386800
X63333Y376800
X63333Y366800
X88333Y366800
X88333Y376800
X88333Y386800
X128333Y386800
X128333Y376800
X128333Y366800
X163333Y366800
X163333Y376800
X163333Y386800
X198333Y386800
X198333Y376800
X198333Y366800
X198333Y356800
X233333Y371800
X233333Y381800
T05
X285833Y245250
X285833Y238550
X285833Y231850
X285833Y225150
X285833Y218450
X285833Y185250
X285833Y178550
X285833Y171850
X285833Y165150
X285833Y158450
T06
X235379Y165150
X238333Y201800
X195333Y218300
X206833Y286800
X228333Y326800
X28833Y160300
T07
X68333Y69300
X48333Y59300
X38333Y49300
X68333Y39300
X353333Y134300
X363333Y144300
X383333Y154300
X383333Y124300
X453333Y134300
X463333Y144300
X483333Y154300
X483333Y124300
X498333Y69300
X478333Y59300
X468333Y49300
X498333Y39300
X483333Y349300
X463333Y369300
X453333Y359300
X483333Y379300
X383333Y379300
X363333Y369300
X353333Y359300
X383333Y349300
T08
X292703Y367115
X292703Y307115
T09
X280892Y307115
X280892Y367115
T10
X50833Y146800
X38333Y146800
X38333Y126800
X50833Y126800
T11
X284829Y289398
X284829Y324831
X284829Y349398
X284829Y384831
T12
X257270Y367115
X257270Y307115
T13
X333333Y341800
X333333Y386800
X403333Y386800
X433333Y386800
X433333Y341800
X403333Y341800
X503333Y341800
X503333Y386800
X503333Y161800
X503333Y116800
X433333Y116800
X403333Y116800
X365396Y78800
X351333Y40800
X333333Y116800
X333333Y161800
X403333Y161800
X433333Y161800
X185333Y40800
X171333Y78800
M30
