G75*
G70*
%OFA0B0*%
%FSLAX24Y24*%
%IPPOS*%
%LPD*%
%AMOC8*
5,1,8,0,0,1.08239X$1,22.5*
%
%ADD10C,0.0230*%
%ADD11R,0.0671X0.0356*%
%ADD12R,0.0377X0.0671*%
%ADD13R,0.0356X0.0671*%
%ADD14C,0.0390*%
%ADD15C,0.1015*%
%ADD16C,0.0480*%
%ADD17OC8,0.0600*%
%ADD18C,0.0600*%
%ADD19R,0.0395X0.0198*%
%ADD20R,0.0198X0.0395*%
%ADD21R,0.0291X0.0295*%
%ADD22R,0.0200X0.0470*%
%ADD23R,0.0671X0.0592*%
%ADD24R,0.0474X0.0513*%
%ADD25C,0.0600*%
%ADD26R,0.0470X0.0200*%
%ADD27R,0.0592X0.0671*%
%ADD28R,0.0434X0.0316*%
%ADD29R,0.0434X0.0356*%
%ADD30R,0.0316X0.0434*%
%ADD31R,0.0395X0.0395*%
%ADD32R,0.0513X0.0474*%
%ADD33OC8,0.0745*%
%ADD34C,0.0626*%
%ADD35R,0.0356X0.0434*%
%ADD36C,0.0710*%
%ADD37R,0.1380X0.1380*%
%ADD38R,0.1680X0.1680*%
%ADD39C,0.0437*%
%ADD40C,0.0789*%
%ADD41C,0.0360*%
%ADD42C,0.1820*%
D10*
X001833Y010180D03*
X002333Y010180D03*
X002833Y010180D03*
X003333Y010180D03*
X003833Y010180D03*
X004333Y010180D03*
X004833Y010180D03*
X005333Y010180D03*
X005833Y010180D03*
X006333Y010180D03*
X006833Y010180D03*
X007333Y010180D03*
X007833Y010180D03*
X008333Y010180D03*
X008833Y010180D03*
X009333Y010180D03*
X009833Y010180D03*
X010333Y010180D03*
X010833Y010180D03*
X011333Y010180D03*
X011833Y010180D03*
X012333Y010180D03*
X012833Y010180D03*
X013333Y010180D03*
X013833Y010180D03*
X014333Y010180D03*
X014833Y010180D03*
X015333Y010180D03*
X015833Y010180D03*
X016333Y010180D03*
X016833Y010180D03*
X017333Y010180D03*
X017833Y010180D03*
X018333Y010180D03*
X018833Y010180D03*
X019333Y010180D03*
X019833Y010180D03*
X020333Y010180D03*
X020833Y010180D03*
X021333Y010180D03*
X021833Y010180D03*
X022333Y010180D03*
X022833Y010180D03*
X023333Y010180D03*
X023833Y010180D03*
X024333Y010180D03*
X024833Y010180D03*
X025333Y010180D03*
X025833Y010180D03*
X026333Y010180D03*
X026833Y010180D03*
X027333Y010180D03*
X027833Y010180D03*
X028333Y010180D03*
X028833Y010180D03*
X029333Y010180D03*
X029833Y010180D03*
X030333Y010180D03*
X030833Y010180D03*
X031333Y010180D03*
X031833Y010180D03*
X031833Y010680D03*
X031833Y011180D03*
X031833Y011680D03*
X031833Y012180D03*
X031833Y012680D03*
X031833Y013180D03*
X031833Y013680D03*
X031833Y014180D03*
X031833Y014680D03*
X031833Y015180D03*
X031833Y015680D03*
X031833Y016180D03*
X031833Y016680D03*
X031833Y017180D03*
X031833Y017680D03*
X031833Y018180D03*
X031833Y018680D03*
X031833Y019180D03*
X031833Y019680D03*
X031833Y020180D03*
X031833Y020680D03*
X032333Y020180D03*
X032833Y020180D03*
X033333Y020180D03*
X033833Y020180D03*
X034333Y020180D03*
X034833Y020180D03*
X035333Y020180D03*
X035833Y020180D03*
X036333Y020180D03*
X036833Y020180D03*
X037333Y020180D03*
X037833Y020180D03*
X038333Y020180D03*
X038833Y020180D03*
X039333Y019680D03*
X039333Y019180D03*
X039333Y018680D03*
X039333Y018180D03*
X039333Y017680D03*
X038833Y017680D03*
X038333Y017680D03*
X037833Y017680D03*
X037333Y017680D03*
X036833Y017680D03*
X036333Y017680D03*
X035833Y017680D03*
X035333Y017680D03*
X034833Y017680D03*
X034333Y017680D03*
X033833Y017680D03*
X033333Y017680D03*
X032833Y017680D03*
X032333Y017680D03*
X031833Y021180D03*
X031833Y021680D03*
X031833Y022180D03*
X031833Y022680D03*
X031833Y023180D03*
X032333Y022680D03*
X032833Y022680D03*
X033333Y022680D03*
X033833Y022680D03*
X034333Y022680D03*
X034833Y022680D03*
X035333Y022680D03*
X035833Y022680D03*
X036333Y022680D03*
X036833Y022680D03*
X037333Y022680D03*
X037833Y022680D03*
X038333Y022680D03*
X038833Y022680D03*
X039333Y022180D03*
X039333Y021680D03*
X039333Y021180D03*
X039333Y020680D03*
X041833Y020680D03*
X041833Y020180D03*
X041833Y019680D03*
X041833Y019180D03*
X041833Y018680D03*
X041833Y018180D03*
X041833Y017680D03*
X041333Y017680D03*
X040833Y017680D03*
X040333Y017680D03*
X039833Y017680D03*
X041833Y017180D03*
X042333Y017680D03*
X042833Y017680D03*
X043333Y017680D03*
X043833Y017680D03*
X044333Y017680D03*
X044833Y017680D03*
X045333Y017680D03*
X045833Y017680D03*
X046333Y017680D03*
X046833Y017680D03*
X046833Y018180D03*
X046833Y018680D03*
X046833Y019180D03*
X046833Y019680D03*
X046833Y020180D03*
X046833Y020680D03*
X046833Y021180D03*
X046833Y021680D03*
X046833Y022180D03*
X046833Y022680D03*
X046833Y023180D03*
X046833Y023680D03*
X046833Y024180D03*
X046833Y024680D03*
X046833Y025180D03*
X046333Y025180D03*
X045833Y025180D03*
X045333Y025180D03*
X044833Y025180D03*
X044333Y025180D03*
X043833Y025180D03*
X043333Y025180D03*
X042833Y025180D03*
X042333Y025180D03*
X041833Y025180D03*
X041333Y025180D03*
X040833Y025180D03*
X040333Y025180D03*
X039833Y025180D03*
X039333Y025180D03*
X038833Y025180D03*
X038333Y025180D03*
X037833Y025180D03*
X037333Y025180D03*
X036833Y025180D03*
X036333Y025180D03*
X035833Y025180D03*
X035333Y025180D03*
X034833Y025180D03*
X034333Y025180D03*
X033833Y025180D03*
X033333Y025180D03*
X032833Y025180D03*
X032333Y025180D03*
X031833Y025180D03*
X031833Y024680D03*
X031833Y024180D03*
X031833Y023680D03*
X031833Y025680D03*
X031833Y026180D03*
X031833Y026680D03*
X031833Y027180D03*
X031833Y027680D03*
X031833Y028180D03*
X031833Y028680D03*
X031833Y029180D03*
X031833Y029680D03*
X031833Y030180D03*
X031833Y030680D03*
X031833Y031180D03*
X031833Y031680D03*
X031833Y032180D03*
X031833Y032680D03*
X031833Y033180D03*
X031833Y033680D03*
X031833Y034180D03*
X031833Y034680D03*
X031833Y035180D03*
X031833Y035680D03*
X031833Y036180D03*
X031833Y036680D03*
X031833Y037180D03*
X031833Y037680D03*
X031833Y038180D03*
X031833Y038680D03*
X031833Y039180D03*
X031833Y039680D03*
X031833Y040180D03*
X032333Y032680D03*
X032833Y032680D03*
X033333Y032680D03*
X033833Y032680D03*
X034333Y032680D03*
X034833Y032680D03*
X035333Y032680D03*
X035833Y032680D03*
X036333Y032680D03*
X036833Y032680D03*
X037333Y032680D03*
X037833Y032680D03*
X038333Y032680D03*
X038833Y032680D03*
X039333Y032680D03*
X039333Y032180D03*
X039833Y032680D03*
X040333Y032680D03*
X040833Y032680D03*
X041333Y032680D03*
X041833Y032680D03*
X041833Y032180D03*
X042333Y032680D03*
X042833Y032680D03*
X043333Y032680D03*
X043833Y032680D03*
X044333Y032680D03*
X044833Y032680D03*
X045333Y032680D03*
X045833Y032680D03*
X046333Y032680D03*
X046833Y032680D03*
X046833Y032180D03*
X047333Y032680D03*
X047833Y032680D03*
X048333Y032680D03*
X048833Y032680D03*
X049333Y032680D03*
X049833Y032680D03*
X050333Y032680D03*
X050833Y032680D03*
X051333Y032680D03*
X051833Y032680D03*
X051833Y028930D03*
X051333Y028930D03*
X050833Y028930D03*
X050333Y028930D03*
X049833Y028930D03*
X049333Y028930D03*
X048833Y028930D03*
X048333Y028930D03*
X047833Y028930D03*
X047333Y028930D03*
X046833Y028680D03*
X046833Y028180D03*
X046833Y027680D03*
X046833Y027180D03*
X046833Y026680D03*
X046833Y026180D03*
X046833Y025680D03*
X047333Y025180D03*
X047833Y025180D03*
X048333Y025180D03*
X048833Y025180D03*
X049333Y025180D03*
X049833Y025180D03*
X050333Y025180D03*
X050833Y025180D03*
X051333Y025180D03*
X051833Y025180D03*
X051833Y021430D03*
X051333Y021430D03*
X050833Y021430D03*
X050333Y021430D03*
X049833Y021430D03*
X049333Y021430D03*
X048833Y021430D03*
X048333Y021430D03*
X047833Y021430D03*
X047333Y021430D03*
X046333Y021430D03*
X045833Y021430D03*
X045333Y021430D03*
X044833Y021430D03*
X044333Y021430D03*
X043833Y021430D03*
X043333Y021430D03*
X042833Y021430D03*
X042333Y021430D03*
X041833Y021680D03*
X041833Y021180D03*
X041833Y022180D03*
X041833Y022680D03*
X041833Y023180D03*
X041833Y023680D03*
X041833Y024180D03*
X041833Y024680D03*
X041833Y025680D03*
X041833Y026180D03*
X041833Y026680D03*
X041833Y027180D03*
X041833Y027680D03*
X041833Y028180D03*
X041833Y028680D03*
X041833Y029180D03*
X041833Y029680D03*
X042333Y028930D03*
X042833Y028930D03*
X043333Y028930D03*
X043833Y028930D03*
X044333Y028930D03*
X044833Y028930D03*
X045333Y028930D03*
X045833Y028930D03*
X046333Y028930D03*
X046833Y029180D03*
X046833Y029680D03*
X046833Y030180D03*
X046833Y030680D03*
X046833Y031180D03*
X046833Y031680D03*
X041833Y031680D03*
X041833Y031180D03*
X041833Y030680D03*
X041833Y030180D03*
X039333Y029680D03*
X039333Y029180D03*
X039333Y028680D03*
X039333Y028180D03*
X038833Y027680D03*
X038333Y027680D03*
X037833Y027680D03*
X037333Y027680D03*
X036833Y027680D03*
X036333Y027680D03*
X035833Y027680D03*
X035333Y027680D03*
X034833Y027680D03*
X034333Y027680D03*
X033833Y027680D03*
X033333Y027680D03*
X032833Y027680D03*
X032333Y027680D03*
X032333Y030180D03*
X032833Y030180D03*
X033333Y030180D03*
X033833Y030180D03*
X034333Y030180D03*
X034833Y030180D03*
X035333Y030180D03*
X035833Y030180D03*
X036333Y030180D03*
X036833Y030180D03*
X037333Y030180D03*
X037833Y030180D03*
X038333Y030180D03*
X038833Y030180D03*
X039333Y030680D03*
X039333Y031180D03*
X039333Y031680D03*
X041833Y033180D03*
X041833Y033680D03*
X041833Y034180D03*
X041833Y034680D03*
X041833Y035180D03*
X041833Y035680D03*
X041833Y036180D03*
X041833Y036680D03*
X041833Y037180D03*
X041833Y037680D03*
X041833Y038180D03*
X041833Y038680D03*
X041833Y039180D03*
X041833Y039680D03*
X041833Y040180D03*
X039333Y027180D03*
X039333Y026680D03*
X039333Y026180D03*
X039333Y025680D03*
X039333Y024680D03*
X039333Y024180D03*
X039333Y023680D03*
X039333Y023180D03*
X047333Y017680D03*
X047833Y017680D03*
X048333Y017680D03*
X048833Y017680D03*
X049333Y017680D03*
X049833Y017680D03*
X050333Y017680D03*
X050833Y017680D03*
X051333Y017680D03*
X051833Y017680D03*
X051833Y010180D03*
X051333Y010180D03*
X050833Y010180D03*
X050333Y010180D03*
X049833Y010180D03*
X049333Y010180D03*
X048833Y010180D03*
X048333Y010180D03*
X047833Y010180D03*
X047333Y010180D03*
X046833Y010180D03*
X046333Y010180D03*
X045833Y010180D03*
X045333Y010180D03*
X044833Y010180D03*
X044333Y010180D03*
X043833Y010180D03*
X043333Y010180D03*
X042833Y010180D03*
X042333Y010180D03*
X041833Y010180D03*
X041333Y010180D03*
X040833Y010180D03*
X040333Y010180D03*
X039833Y010180D03*
X039333Y010180D03*
X038833Y010180D03*
X038333Y010180D03*
X037833Y010180D03*
X037333Y010180D03*
X036833Y010180D03*
X036333Y010180D03*
X035833Y010180D03*
X035333Y010180D03*
X034833Y010180D03*
X034333Y010180D03*
X033833Y010180D03*
X033333Y010180D03*
X032833Y010180D03*
X032333Y010180D03*
X041833Y010680D03*
X041833Y011180D03*
X041833Y011680D03*
X041833Y012180D03*
X041833Y012680D03*
X041833Y013180D03*
X041833Y013680D03*
X041833Y014180D03*
X041833Y014680D03*
X041833Y015180D03*
X041833Y015680D03*
X041833Y016180D03*
X041833Y016680D03*
D11*
X009373Y022727D03*
X009373Y023121D03*
X009373Y023515D03*
X009373Y023908D03*
X009373Y024302D03*
X009373Y024696D03*
X009373Y025089D03*
X009373Y026271D03*
X009373Y026664D03*
X009373Y027058D03*
X009373Y027452D03*
X009373Y027845D03*
X009373Y028239D03*
X009373Y028633D03*
D12*
X008751Y022106D03*
D13*
X008357Y022106D03*
X007964Y022106D03*
X007570Y022106D03*
X007176Y022106D03*
X006783Y022106D03*
X006389Y022106D03*
X005995Y022106D03*
X005601Y022106D03*
X005601Y029254D03*
X005995Y029254D03*
X006389Y029254D03*
X006783Y029254D03*
X007176Y029254D03*
X007570Y029254D03*
X007964Y029254D03*
X008357Y029254D03*
X008751Y029254D03*
D14*
X005333Y013930D03*
X004833Y013930D03*
X004333Y013930D03*
X004333Y013430D03*
X004833Y013430D03*
X005333Y013430D03*
D15*
X005083Y012680D03*
X003833Y012680D03*
X003833Y014680D03*
X005083Y014680D03*
D16*
X005833Y014080D03*
X005833Y013280D03*
X003833Y013680D03*
D17*
X003333Y018680D03*
X004333Y018680D03*
X005333Y018680D03*
X006333Y018680D03*
X007333Y018680D03*
X008333Y018680D03*
X009333Y018680D03*
X010333Y018680D03*
X010333Y019680D03*
X009333Y019680D03*
X008333Y019680D03*
X007333Y019680D03*
X006333Y019680D03*
X005333Y019680D03*
X004333Y019680D03*
X003333Y019680D03*
X013333Y019680D03*
X013333Y020680D03*
X014333Y020680D03*
X014333Y019680D03*
X014333Y018680D03*
X013333Y018680D03*
X013333Y021680D03*
X013333Y022680D03*
X014333Y022680D03*
X014333Y021680D03*
X014333Y023680D03*
X013333Y023680D03*
X013333Y024680D03*
X014333Y024680D03*
X014333Y026680D03*
X013333Y026680D03*
X013333Y027680D03*
X013333Y028680D03*
X013333Y029680D03*
X014333Y029680D03*
X014333Y028680D03*
X014333Y027680D03*
X014333Y030680D03*
X013333Y030680D03*
X013333Y031680D03*
X014333Y031680D03*
X014333Y032680D03*
X013333Y032680D03*
X010333Y032680D03*
X009333Y032680D03*
X008333Y032680D03*
X007333Y032680D03*
X006333Y032680D03*
X005333Y032680D03*
X004333Y032680D03*
X003333Y032680D03*
X003333Y031680D03*
X004333Y031680D03*
X005333Y031680D03*
X006333Y031680D03*
X007333Y031680D03*
X008333Y031680D03*
X009333Y031680D03*
X010333Y031680D03*
D18*
X010333Y034180D03*
X009333Y034180D03*
X008333Y034180D03*
X007333Y034180D03*
X006333Y034180D03*
X005333Y034180D03*
X004333Y034180D03*
X003333Y034180D03*
X015833Y032680D03*
X015833Y031680D03*
X015833Y030680D03*
X015833Y029680D03*
X015833Y028680D03*
X015833Y027680D03*
X015833Y026680D03*
X015833Y024680D03*
X015833Y023680D03*
X015833Y022680D03*
X015833Y021680D03*
X015833Y020680D03*
X015833Y019680D03*
X015833Y018680D03*
X010333Y017180D03*
X009333Y017180D03*
X008333Y017180D03*
X007333Y017180D03*
X006333Y017180D03*
X005333Y017180D03*
X004333Y017180D03*
X003333Y017180D03*
D19*
X008802Y014574D03*
X008802Y014377D03*
X008802Y014180D03*
X008802Y013983D03*
X008802Y013786D03*
X009865Y013786D03*
X009865Y013983D03*
X009865Y014180D03*
X009865Y014377D03*
X009865Y014574D03*
D20*
X009530Y014682D03*
X009333Y014682D03*
X009136Y014682D03*
X009136Y013678D03*
X009333Y013678D03*
X009530Y013678D03*
D21*
X009504Y012680D03*
X009163Y012680D03*
X009163Y011680D03*
X009504Y011680D03*
D22*
X020170Y025031D03*
X020426Y025031D03*
X020682Y025031D03*
X020938Y025031D03*
X021194Y025031D03*
X021449Y025031D03*
X021705Y025031D03*
X021961Y025031D03*
X022217Y025031D03*
X022473Y025031D03*
X022729Y025031D03*
X022985Y025031D03*
X023241Y025031D03*
X023497Y025031D03*
X023497Y027329D03*
X023241Y027329D03*
X022985Y027329D03*
X022729Y027329D03*
X022473Y027329D03*
X022217Y027329D03*
X021961Y027329D03*
X021705Y027329D03*
X021449Y027329D03*
X021194Y027329D03*
X020938Y027329D03*
X020682Y027329D03*
X020426Y027329D03*
X020170Y027329D03*
D23*
X020533Y022604D03*
X020533Y021856D03*
X023833Y002054D03*
X023833Y001306D03*
D24*
X036549Y018630D03*
X037218Y018630D03*
X037218Y021130D03*
X036549Y021130D03*
X036549Y023630D03*
X037218Y023630D03*
X037198Y026130D03*
X036529Y026130D03*
X036499Y028580D03*
X037168Y028580D03*
X037168Y031130D03*
X036499Y031130D03*
X042549Y029980D03*
X043218Y029980D03*
X043949Y030180D03*
X044618Y030180D03*
X047549Y029930D03*
X048218Y029930D03*
X048999Y030280D03*
X049668Y030280D03*
X049668Y026480D03*
X048999Y026480D03*
X048218Y026280D03*
X047549Y026280D03*
X044668Y026480D03*
X043999Y026480D03*
X043218Y026280D03*
X042549Y026280D03*
X042549Y022530D03*
X043218Y022530D03*
X043999Y022730D03*
X044668Y022730D03*
X047549Y022530D03*
X048218Y022530D03*
X048999Y022730D03*
X049668Y022730D03*
X049668Y018980D03*
X048999Y018980D03*
X048218Y018780D03*
X047549Y018780D03*
X044668Y018980D03*
X043999Y018980D03*
X043218Y018780D03*
X042549Y018780D03*
X022818Y029180D03*
X022149Y029180D03*
D25*
X004833Y001940D02*
X004833Y001420D01*
X005833Y001420D02*
X005833Y001940D01*
X016333Y001940D02*
X016333Y001420D01*
X017333Y001420D02*
X017333Y001940D01*
X018333Y001940D02*
X018333Y001420D01*
X020333Y001420D02*
X020333Y001940D01*
X021333Y001940D02*
X021333Y001420D01*
X022333Y001420D02*
X022333Y001940D01*
X030833Y001940D02*
X030833Y001420D01*
X031833Y001420D02*
X031833Y001940D01*
X034833Y001940D02*
X034833Y001420D01*
X035833Y001420D02*
X035833Y001940D01*
X036833Y001940D02*
X036833Y001420D01*
X037833Y001420D02*
X037833Y001940D01*
X047833Y001940D02*
X047833Y001420D01*
X048833Y001420D02*
X048833Y001940D01*
X043493Y013430D02*
X042973Y013430D01*
X042973Y014430D02*
X043493Y014430D01*
X040693Y014430D02*
X040173Y014430D01*
X040173Y013430D02*
X040693Y013430D01*
X045573Y018530D02*
X046093Y018530D01*
X046093Y019530D02*
X045573Y019530D01*
X045573Y020530D02*
X046093Y020530D01*
X046093Y022280D02*
X045573Y022280D01*
X045573Y023280D02*
X046093Y023280D01*
X046093Y024280D02*
X045573Y024280D01*
X045573Y026030D02*
X046093Y026030D01*
X046093Y027030D02*
X045573Y027030D01*
X045573Y028030D02*
X046093Y028030D01*
X046093Y029780D02*
X045573Y029780D01*
X045573Y030780D02*
X046093Y030780D01*
X046093Y031780D02*
X045573Y031780D01*
X050573Y031780D02*
X051093Y031780D01*
X051093Y030780D02*
X050573Y030780D01*
X050573Y029780D02*
X051093Y029780D01*
X051093Y028030D02*
X050573Y028030D01*
X050573Y027030D02*
X051093Y027030D01*
X051093Y026030D02*
X050573Y026030D01*
X050573Y024280D02*
X051093Y024280D01*
X051093Y023280D02*
X050573Y023280D01*
X050573Y022280D02*
X051093Y022280D01*
X051093Y020530D02*
X050573Y020530D01*
X050573Y019530D02*
X051093Y019530D01*
X051093Y018530D02*
X050573Y018530D01*
X040593Y021430D02*
X040073Y021430D01*
X040073Y022430D02*
X040593Y022430D01*
X040593Y023430D02*
X040073Y023430D01*
X040073Y024430D02*
X040593Y024430D01*
X040593Y028880D02*
X040073Y028880D01*
X040073Y029880D02*
X040593Y029880D01*
X040593Y030880D02*
X040073Y030880D01*
X040073Y031880D02*
X040593Y031880D01*
X040693Y035930D02*
X040173Y035930D01*
X040173Y036930D02*
X040693Y036930D01*
X042973Y036930D02*
X043493Y036930D01*
X043493Y035930D02*
X042973Y035930D01*
X035583Y031440D02*
X035583Y030920D01*
X034583Y030920D02*
X034583Y031440D01*
X033583Y031440D02*
X033583Y030920D01*
X032583Y030920D02*
X032583Y031440D01*
X032583Y028940D02*
X032583Y028420D01*
X033583Y028420D02*
X033583Y028940D01*
X034583Y028940D02*
X034583Y028420D01*
X035583Y028420D02*
X035583Y028940D01*
X035583Y026440D02*
X035583Y025920D01*
X034583Y025920D02*
X034583Y026440D01*
X033583Y026440D02*
X033583Y025920D01*
X032583Y025920D02*
X032583Y026440D01*
X032583Y023940D02*
X032583Y023420D01*
X033583Y023420D02*
X033583Y023940D01*
X034583Y023940D02*
X034583Y023420D01*
X035583Y023420D02*
X035583Y023940D01*
X035583Y021440D02*
X035583Y020920D01*
X034583Y020920D02*
X034583Y021440D01*
X033583Y021440D02*
X033583Y020920D01*
X032583Y020920D02*
X032583Y021440D01*
X032583Y018940D02*
X032583Y018420D01*
X033583Y018420D02*
X033583Y018940D01*
X034583Y018940D02*
X034583Y018420D01*
X035583Y018420D02*
X035583Y018940D01*
X022593Y014680D02*
X022073Y014680D01*
X022073Y013680D02*
X022593Y013680D01*
X022593Y012680D02*
X022073Y012680D01*
X019093Y012680D02*
X018573Y012680D01*
X018573Y013680D02*
X019093Y013680D01*
X019093Y014680D02*
X018573Y014680D01*
X015593Y014680D02*
X015073Y014680D01*
X015073Y013680D02*
X015593Y013680D01*
X015593Y012680D02*
X015073Y012680D01*
X019573Y035680D02*
X020093Y035680D01*
X020093Y036680D02*
X019573Y036680D01*
X019573Y037680D02*
X020093Y037680D01*
X020093Y038680D02*
X019573Y038680D01*
X016593Y038680D02*
X016073Y038680D01*
X016073Y037680D02*
X016593Y037680D01*
X016593Y036680D02*
X016073Y036680D01*
X013093Y036680D02*
X012573Y036680D01*
X012573Y037680D02*
X013093Y037680D01*
X013093Y038680D02*
X012573Y038680D01*
X009093Y038680D02*
X008573Y038680D01*
X008573Y037680D02*
X009093Y037680D01*
X009093Y036680D02*
X008573Y036680D01*
X006593Y036680D02*
X006073Y036680D01*
X006073Y037680D02*
X006593Y037680D01*
X006593Y038680D02*
X006073Y038680D01*
X004093Y038680D02*
X003573Y038680D01*
X003573Y037680D02*
X004093Y037680D01*
X004093Y036680D02*
X003573Y036680D01*
X023073Y037180D02*
X023593Y037180D01*
X023593Y038180D02*
X023073Y038180D01*
D26*
X025685Y004343D03*
X025685Y004087D03*
X025685Y003832D03*
X025685Y003576D03*
X025685Y003320D03*
X025685Y003064D03*
X025685Y002808D03*
X025685Y002552D03*
X025685Y002296D03*
X025685Y002040D03*
X025685Y001784D03*
X025685Y001528D03*
X025685Y001273D03*
X025685Y001017D03*
X027982Y001017D03*
X027982Y001273D03*
X027982Y001528D03*
X027982Y001784D03*
X027982Y002040D03*
X027982Y002296D03*
X027982Y002552D03*
X027982Y002808D03*
X027982Y003064D03*
X027982Y003320D03*
X027982Y003576D03*
X027982Y003832D03*
X027982Y004087D03*
X027982Y004343D03*
D27*
X026207Y015430D03*
X025459Y015430D03*
X025459Y019180D03*
X026207Y019180D03*
X026207Y021430D03*
X025459Y021430D03*
X025459Y024930D03*
X026207Y024930D03*
D28*
X037681Y024254D03*
X037681Y023506D03*
X038586Y023880D03*
X037681Y021754D03*
X037681Y021006D03*
X038586Y021380D03*
X037681Y019254D03*
X037681Y018506D03*
X038586Y018880D03*
X043881Y020130D03*
X044786Y019756D03*
X044786Y020504D03*
X044786Y023506D03*
X044786Y024254D03*
X043881Y023880D03*
X044786Y027306D03*
X044786Y028054D03*
X043881Y027680D03*
X044736Y031056D03*
X044736Y031804D03*
X043831Y031430D03*
X048881Y031380D03*
X049786Y031006D03*
X049786Y031754D03*
X049786Y028004D03*
X049786Y027256D03*
X048881Y027630D03*
X049786Y024254D03*
X049786Y023506D03*
X048881Y023880D03*
X049786Y020504D03*
X049786Y019756D03*
X048881Y020130D03*
X038586Y026380D03*
X037681Y026006D03*
X037681Y026754D03*
X037681Y028456D03*
X037681Y029204D03*
X038586Y028830D03*
X037681Y030956D03*
X037681Y031704D03*
X038586Y031330D03*
D29*
X041133Y030886D03*
X041133Y030374D03*
X041133Y023436D03*
X041133Y022924D03*
X026583Y022924D03*
X026583Y023436D03*
X024833Y023436D03*
X024833Y022924D03*
X024833Y017686D03*
X024833Y017174D03*
X026583Y017174D03*
X026583Y017686D03*
X025833Y006686D03*
X025833Y006174D03*
X023833Y006174D03*
X023833Y006686D03*
X021833Y006686D03*
X021833Y006174D03*
X019833Y006174D03*
X019833Y006686D03*
X011833Y003936D03*
X011833Y003424D03*
X009833Y002936D03*
X009833Y002424D03*
X008833Y002424D03*
X008833Y002936D03*
X008833Y007424D03*
X008833Y007936D03*
X009833Y007936D03*
X009833Y007424D03*
X027833Y006686D03*
X027833Y006174D03*
X029833Y006174D03*
X029833Y006686D03*
X031833Y006686D03*
X031833Y006174D03*
X033833Y006174D03*
X033833Y006686D03*
X041833Y003936D03*
X041833Y003424D03*
X043833Y002936D03*
X043833Y002424D03*
X044833Y002424D03*
X044833Y002936D03*
X044833Y007424D03*
X044833Y007936D03*
X043833Y007936D03*
X043833Y007424D03*
D30*
X040533Y018477D03*
X040159Y019383D03*
X040907Y019383D03*
X042509Y019677D03*
X042883Y019677D03*
X043257Y019677D03*
X043257Y020583D03*
X042883Y020583D03*
X042509Y020583D03*
X042509Y023427D03*
X042883Y023427D03*
X043257Y023427D03*
X043257Y024333D03*
X042883Y024333D03*
X042509Y024333D03*
X040483Y025977D03*
X040109Y026883D03*
X040857Y026883D03*
X042509Y027177D03*
X042883Y027177D03*
X043257Y027177D03*
X043257Y028083D03*
X042883Y028083D03*
X042509Y028083D03*
X042509Y030927D03*
X042883Y030927D03*
X043257Y030927D03*
X043257Y031833D03*
X042883Y031833D03*
X042509Y031833D03*
X047509Y031833D03*
X047883Y031833D03*
X048257Y031833D03*
X048257Y030927D03*
X047883Y030927D03*
X047509Y030927D03*
X047509Y028083D03*
X047883Y028083D03*
X048257Y028083D03*
X048257Y027177D03*
X047883Y027177D03*
X047509Y027177D03*
X047509Y024333D03*
X047883Y024333D03*
X048257Y024333D03*
X048257Y023427D03*
X047883Y023427D03*
X047509Y023427D03*
X047509Y020583D03*
X047883Y020583D03*
X048257Y020583D03*
X048257Y019677D03*
X047883Y019677D03*
X047509Y019677D03*
D31*
X033833Y008475D03*
X033833Y007885D03*
X031833Y007885D03*
X031833Y008475D03*
X029833Y008475D03*
X029833Y007885D03*
X027833Y007885D03*
X027833Y008475D03*
X025833Y008475D03*
X025833Y007885D03*
X023833Y007885D03*
X023833Y008475D03*
X021833Y008475D03*
X021833Y007885D03*
X019833Y007885D03*
X019833Y008475D03*
X011833Y005475D03*
X011833Y004885D03*
X041833Y004885D03*
X041833Y005475D03*
X004729Y029680D03*
X004138Y029680D03*
D32*
X017333Y022565D03*
X017333Y021895D03*
X018433Y021895D03*
X018433Y022565D03*
X040283Y020515D03*
X040283Y019845D03*
X040283Y027345D03*
X040283Y028015D03*
X023683Y004415D03*
X023683Y003745D03*
D33*
X035333Y013430D03*
X036333Y014430D03*
X038333Y015430D03*
X038333Y012430D03*
X045333Y013430D03*
X046333Y014430D03*
X048333Y015430D03*
X048333Y012430D03*
X049833Y006930D03*
X047833Y005930D03*
X046833Y004930D03*
X049833Y003930D03*
X048333Y034930D03*
X046333Y036930D03*
X045333Y035930D03*
X048333Y037930D03*
X038333Y037930D03*
X036333Y036930D03*
X035333Y035930D03*
X038333Y034930D03*
X006833Y006930D03*
X004833Y005930D03*
X003833Y004930D03*
X006833Y003930D03*
D34*
X028310Y015845D02*
X028856Y015845D01*
X028856Y016515D02*
X028310Y016515D01*
X028310Y017185D02*
X028856Y017185D01*
X028856Y017855D02*
X028310Y017855D01*
X028310Y018525D02*
X028856Y018525D01*
X028856Y021845D02*
X028310Y021845D01*
X028310Y022515D02*
X028856Y022515D01*
X028856Y023185D02*
X028310Y023185D01*
X028310Y023855D02*
X028856Y023855D01*
X028856Y024525D02*
X028310Y024525D01*
D35*
X033577Y024480D03*
X034089Y024480D03*
X034089Y021980D03*
X033577Y021980D03*
X033577Y019480D03*
X034089Y019480D03*
X034089Y026980D03*
X033577Y026980D03*
X033577Y029480D03*
X034089Y029480D03*
X034089Y031980D03*
X033577Y031980D03*
X003289Y029680D03*
X002777Y029680D03*
X009077Y006680D03*
X009589Y006680D03*
X009589Y001680D03*
X009077Y001680D03*
X044077Y001680D03*
X044589Y001680D03*
X044589Y006680D03*
X044077Y006680D03*
D36*
X029270Y030711D03*
X029270Y036711D03*
D37*
X028089Y036711D03*
X028089Y030711D03*
D38*
X028483Y028940D03*
X025727Y030711D03*
X028483Y032483D03*
X028483Y034940D03*
X025727Y036711D03*
X028483Y038483D03*
D39*
X015533Y034080D03*
X012333Y034080D03*
X010633Y038680D03*
X002733Y030580D03*
X011733Y025680D03*
X002989Y020986D03*
X006833Y015480D03*
X007633Y012580D03*
X010533Y012580D03*
X012933Y012580D03*
X014833Y006680D03*
X014933Y004680D03*
X015333Y002430D03*
X011583Y002180D03*
X010583Y001430D03*
X010583Y002930D03*
X010833Y005180D03*
X009833Y005930D03*
X019833Y005430D03*
X021833Y005430D03*
X023833Y005430D03*
X025833Y005430D03*
X028583Y005430D03*
X030083Y004330D03*
X030583Y005430D03*
X032333Y005430D03*
X032333Y004680D03*
X036333Y005430D03*
X038833Y004680D03*
X038333Y002930D03*
X037333Y002930D03*
X041833Y000780D03*
X042833Y003936D03*
X043833Y005930D03*
X045333Y003680D03*
X045583Y001930D03*
X038833Y006680D03*
X024883Y001930D03*
X024733Y001480D03*
X020733Y012280D03*
X024733Y026580D03*
X030433Y026580D03*
X043233Y026730D03*
X043833Y027280D03*
X043233Y030480D03*
X043733Y030980D03*
X048233Y030380D03*
X048833Y030980D03*
X048833Y027180D03*
X048233Y026730D03*
X048883Y023480D03*
X048233Y022980D03*
X048833Y019680D03*
X048213Y019240D03*
X043883Y019730D03*
X043233Y019230D03*
X043283Y022980D03*
X043833Y023480D03*
D40*
X023833Y020180D03*
X019533Y021830D03*
X023538Y016515D03*
X020683Y028680D03*
X022833Y032680D03*
X002883Y016030D03*
D41*
X012833Y016680D03*
X012833Y017180D03*
X012833Y017680D03*
X030163Y003850D03*
X030263Y003320D03*
X029313Y003060D03*
X029693Y002550D03*
X028653Y002810D03*
X031053Y003580D03*
X036233Y019130D03*
X036233Y021630D03*
X036233Y024130D03*
X036183Y026630D03*
X036233Y029080D03*
X036183Y031630D03*
X040733Y028230D03*
X040733Y020730D03*
D42*
X040333Y016180D03*
X043333Y016180D03*
X043333Y011680D03*
X040333Y011680D03*
X036540Y007880D03*
X035133Y004080D03*
X033333Y011680D03*
X033333Y016180D03*
X018533Y004080D03*
X017133Y007880D03*
X050333Y011680D03*
X050333Y016180D03*
X050333Y034180D03*
X050333Y038680D03*
X043333Y038680D03*
X040333Y038680D03*
X040333Y034180D03*
X043333Y034180D03*
X033333Y034180D03*
X033333Y038680D03*
M02*
